<svg width="13" height="15" viewBox="0 0 13 15" fill="none" xmlns="http://www.w3.org/2000/svg">
<path d="M6.73891 14.25L6.73891 2.56L10.7389 6.58C11.0189 6.88 11.4889 6.88 11.7789 6.58C12.0789 6.29 12.0789 5.82 11.7789 5.52L6.52891 0.219999C6.49255 0.182525 6.45232 0.149004 6.40891 0.119998L6.34891 0.0899987L6.20891 0.0299983L6.14891 0.00999883L5.99891 -1.38238e-06L5.84891 0.00999886L5.78891 0.0299984L5.71891 0.0599991C5.68891 0.0599991 5.66891 0.0799986 5.63891 0.099999C5.61891 0.099999 5.60891 0.109998 5.58891 0.129999C5.54596 0.155857 5.50576 0.186012 5.46891 0.219999L0.218908 5.52C0.078458 5.66063 -0.000431861 5.85125 -0.000431843 6.05C-0.000431826 6.24875 0.078458 6.43938 0.218909 6.58C0.508909 6.88 0.978909 6.88 1.26891 6.58L5.25891 2.56L5.25891 14.25C5.25889 14.4472 5.33653 14.6365 5.47503 14.7768C5.61353 14.9172 5.80173 14.9974 5.99891 15C6.40891 15 6.73891 14.66 6.73891 14.25Z" fill="#06038D"/>
</svg>
