<svg width="13" height="15" viewBox="0 0 13 15" fill="none" xmlns="http://www.w3.org/2000/svg">
<path d="M5.265 0.75L5.265 12.44L1.265 8.42C0.985 8.12 0.515 8.12 0.225 8.42C-0.075 8.71 -0.075 9.18 0.225 9.48L5.475 14.78C5.51136 14.8175 5.55158 14.851 5.595 14.88L5.655 14.91L5.795 14.97L5.855 14.99L6.005 15L6.155 14.99L6.215 14.97L6.285 14.94C6.315 14.94 6.335 14.92 6.365 14.9C6.385 14.9 6.395 14.89 6.415 14.87C6.45794 14.8441 6.49815 14.814 6.535 14.78L11.785 9.48C11.9254 9.33938 12.0043 9.14875 12.0043 8.95C12.0043 8.75125 11.9254 8.56063 11.785 8.42C11.495 8.12 11.025 8.12 10.735 8.42L6.745 12.44L6.745 0.75C6.74502 0.552808 6.66737 0.363543 6.52888 0.223174C6.39038 0.0828061 6.20217 0.00262923 6.005 0C5.595 -1.79208e-08 5.265 0.34 5.265 0.75Z" fill="white"/>
</svg>
