<svg width="64" height="65" viewBox="0 0 64 65" fill="none" xmlns="http://www.w3.org/2000/svg">
<path d="M2 1V65V1ZM64 63H0H64ZM17.8 58H13.4C11 58 9 57 9 55.8V42.4C9 41.1 11 40.1 13.4 40.1H17.8C20.2 40.1 22.2 41.1 22.2 42.4V55.8C22.2 57 20.2 58 17.8 58V58ZM41.8 30.6C41.8 29.2 39.8 28.1 37.3 28.1H32.9C30.5 28.1 28.5 29.2 28.5 30.6V55.6C28.5 56.9 30.5 58 32.9 58H37.3C39.7 58 41.7 56.9 41.7 55.5V30.6H41.8ZM61 55.3V17C61 15.5 59 14.3 56.6 14.3H52.2C49.8 14.3 47.8 15.5 47.8 17V55.3C47.8 56.8 49.8 58 52.2 58H56.6C59 58 61 56.8 61 55.3ZM18.9 11.6C24.3 11.6 28.8 15.5 28.8 21.5H9C9 15.5 13.4 11.6 18.9 11.6ZM18.6 1C19.9526 1 21.2498 1.53732 22.2062 2.49376C23.1627 3.45019 23.7 4.7474 23.7 6.1C23.7 7.4526 23.1627 8.74981 22.2062 9.70624C21.2498 10.6627 19.9526 11.2 18.6 11.2C17.2474 11.2 15.9502 10.6627 14.9938 9.70624C14.0373 8.74981 13.5 7.4526 13.5 6.1C13.5 4.7474 14.0373 3.45019 14.9938 2.49376C15.9502 1.53732 17.2474 1 18.6 1V1Z" stroke="white" stroke-width="2"/>
</svg>
