<svg width="57" height="64" viewBox="0 0 57 64" fill="none" xmlns="http://www.w3.org/2000/svg">
<path fill-rule="evenodd" clip-rule="evenodd" d="M0.966797 62.1423H16.9075V52.0949H0.966797V62.1423ZM16.9075 62.1423H39.2244V41.9508H16.9075V62.1423ZM39.2244 62.1423H55.1651V48.9068H39.2244V62.1423ZM33.3312 38.5695C31.399 37.6034 30.0465 35.961 30.0465 33.8356C30.1431 27.9423 44.538 29.6813 40.4804 1.08472H15.6515C11.6905 29.6813 26.0854 27.9423 26.0854 33.739V33.8356C26.0854 35.961 24.6363 37.6034 22.8007 38.5695C20.3854 39.7288 20.1922 40.3084 20.1922 41.4678V41.9508H35.9397V41.4678C35.9397 40.3084 35.7465 39.7288 33.3312 38.5695Z" stroke="white" stroke-width="2"/>
<path d="M18.3566 24.561C15.4583 20.2135 9.08203 18.0881 9.08203 13.9339C9.08203 9.48982 14.2024 9.58643 15.0719 13.9339M37.7753 24.561C40.6736 20.2135 47.0498 18.0881 47.0498 13.9339C47.0498 9.48982 41.9295 9.58643 41.06 13.9339L37.7753 24.561Z" stroke="white" stroke-width="2"/>
</svg>
