<svg width="65" height="64" viewBox="0 0 65 64" fill="none" xmlns="http://www.w3.org/2000/svg">
<path d="M0.375 61.2875H63.625M2.7125 63.625V0.375M24.6712 38.325V41.8862M24.6712 45.97V49.5312M24.6712 53.7388V57.3M44.3338 38.2562V41.8312M44.3338 45.9013V49.4625M44.3338 53.6838V57.2312M44.3338 30.2262V33.7738M28.1775 30.2125C28.2206 30.699 28.162 31.1892 28.0054 31.6519C27.8488 32.1146 27.5976 32.5396 27.2678 32.8999C26.938 33.2602 26.5369 33.548 26.0898 33.7448C25.6428 33.9417 25.1597 34.0433 24.6712 34.0433C24.1828 34.0433 23.6997 33.9417 23.2527 33.7448C22.8056 33.548 22.4045 33.2602 22.0747 32.8999C21.7449 32.5396 21.4937 32.1146 21.3371 31.6519C21.1805 31.1892 21.1219 30.699 21.165 30.2125C21.2427 29.3362 21.6457 28.5207 22.2947 27.9267C22.9436 27.3328 23.7915 27.0033 24.6712 27.0033C25.551 27.0033 26.3989 27.3328 27.0478 27.9267C27.6968 28.5207 28.0998 29.3362 28.1775 30.2125ZM44.3475 18.8275C43.4176 18.8275 42.5258 19.1969 41.8682 19.8545C41.2107 20.512 40.8413 21.4038 40.8413 22.3337C40.8413 23.2637 41.2107 24.1555 41.8682 24.813C42.5258 25.4706 43.4176 25.84 44.3475 25.84C45.2774 25.84 46.1692 25.4706 46.8268 24.813C47.4843 24.1555 47.8537 23.2637 47.8537 22.3337C47.8537 21.4038 47.4843 20.512 46.8268 19.8545C46.1692 19.1969 45.2774 18.8275 44.3475 18.8275ZM21.4813 31.6975C21.4813 31.6975 14.3175 35.355 9.9175 42.9725C3.5925 53.89 2.7125 61.2875 2.7125 61.2875L21.4813 31.6975ZM40.8688 22.8425C40.8688 22.8425 37.1562 22.98 34.5025 25.5238C32.0687 27.8613 27.875 28.7687 27.875 28.7687L40.8688 22.8425ZM47.8537 21.9212C47.8537 21.9212 51.965 22.3338 57.0387 19.735C61.2462 17.5763 63.625 12.8875 63.625 12.8875L47.8537 21.9212Z" stroke="white" stroke-width="2"/>
</svg>
