<svg width="124" height="30" viewBox="0 0 124 30" fill="none" xmlns="http://www.w3.org/2000/svg">
<path fill-rule="evenodd" clip-rule="evenodd" d="M48.2695 8.4H50.1695C50.2395 8.4 50.3295 8.5 50.3695 8.58L55.0995 17.64C55.1395 17.72 55.1895 17.79 55.2195 17.88C55.2795 18.04 55.3795 18.1 55.5595 18.1C55.7395 18.1 55.8295 18.04 55.9095 17.89L58.9695 12.07L60.8195 8.58C60.8595 8.5 60.9595 8.4 61.0395 8.4H62.8895V21.88H60.7495V13.28L60.6795 13.26L60.3295 13.89L57.0995 19.93C56.9995 20.1 56.8995 20.17 56.6995 20.21C55.9713 20.3325 55.2277 20.3325 54.4995 20.21C54.3978 20.2012 54.3001 20.1662 54.216 20.1084C54.1318 20.0505 54.0641 19.9718 54.0195 19.88L50.6195 13.51C50.5825 13.4283 50.5191 13.3614 50.4395 13.32V21.87H48.2695V8.4ZM108.3 16.71C108.3 15.98 108.26 15.24 108.31 14.51C108.34 14.05 108.15 13.83 107.78 13.69C107.166 13.402 106.479 13.308 105.811 13.4205C105.143 13.5331 104.525 13.8469 104.04 14.32C103.546 14.7997 103.211 15.4199 103.083 16.0963C102.954 16.7727 103.037 17.4723 103.32 18.1C103.509 18.5334 103.789 18.9213 104.14 19.2374C104.492 19.5536 104.907 19.7907 105.358 19.9328C105.809 20.075 106.286 20.1188 106.755 20.0614C107.224 20.004 107.676 19.8467 108.08 19.6C108.23 19.5 108.31 19.39 108.3 19.2V16.7V16.71ZM108.3 11.71V7.51H110.46V20.14C110.46 20.34 110.4 20.48 110.26 20.61C107.36 23.4 102.26 22.35 101.06 18.15C100.859 17.4217 100.812 16.6595 100.923 15.9122C101.034 15.1649 101.3 14.4491 101.704 13.8107C102.108 13.1723 102.641 12.6254 103.269 12.2051C103.897 11.7848 104.605 11.5003 105.35 11.37C106.253 11.1946 107.189 11.2885 108.04 11.64L108.3 11.74V11.71ZM96.9795 15.6C96.9997 15.2198 96.9175 14.8412 96.7416 14.5035C96.5658 14.1658 96.3026 13.8815 95.9795 13.68C94.3295 12.57 92.1095 13.25 91.2495 15.14C91.1795 15.28 91.1295 15.44 91.0695 15.6H96.9795ZM99.0795 17.42H90.9795C91.0595 18.09 91.3595 18.62 91.7995 19.05C92.2797 19.5496 92.8899 19.9051 93.5613 20.0764C94.2327 20.2478 94.9386 20.2283 95.5995 20.02C96.578 19.7631 97.4714 19.2526 98.1895 18.54L98.4095 18.36L98.4295 18.63V20.23C98.4351 20.317 98.4198 20.4041 98.385 20.4841C98.3502 20.5641 98.297 20.6347 98.2295 20.69C97.3624 21.506 96.2457 22.0062 95.0595 22.11C94.0756 22.2494 93.0724 22.1161 92.159 21.7246C91.2456 21.3332 90.4572 20.6986 89.8795 19.89C89.3884 19.2055 89.0617 18.417 88.9249 17.5858C88.788 16.7545 88.8446 15.9029 89.0903 15.0971C89.336 14.2913 89.7642 13.553 90.3416 12.9395C90.919 12.3261 91.6301 11.854 92.4195 11.56C94.3695 10.86 96.7195 11.38 97.9895 12.83C98.4392 13.3702 98.774 13.9965 98.9734 14.6705C99.1729 15.3445 99.2328 16.0521 99.1495 16.75C99.1395 16.97 99.1095 17.19 99.0795 17.42Z" fill="white"/>
<path fill-rule="evenodd" clip-rule="evenodd" d="M117.89 20.07C119.67 20.07 121.19 18.53 121.19 16.71C121.19 14.9 119.69 13.38 117.9 13.37C117.011 13.3687 116.159 13.7203 115.53 14.3477C114.9 14.975 114.546 15.8265 114.545 16.715C114.544 17.6035 114.895 18.4561 115.523 19.0853C116.15 19.7145 117.001 20.0687 117.89 20.07ZM123.37 16.72C123.37 19.72 120.91 22.15 117.89 22.15C117.173 22.1513 116.463 22.0114 115.8 21.7382C115.137 21.465 114.534 21.064 114.026 20.5579C113.518 20.0518 113.115 19.4506 112.839 18.7887C112.564 18.1268 112.421 17.417 112.42 16.7C112.421 15.2479 112.999 13.8559 114.027 12.8301C115.055 11.8042 116.448 11.2287 117.9 11.23C119.352 11.2313 120.744 11.8094 121.77 12.8371C122.796 13.8648 123.371 15.2579 123.37 16.71" fill="white"/>
<path fill-rule="evenodd" clip-rule="evenodd" d="M70.5792 20.07C72.3592 20.07 73.8792 18.52 73.8792 16.7C73.8715 15.8244 73.5223 14.9863 72.9059 14.3644C72.2896 13.7424 71.4547 13.3856 70.5792 13.37C69.6986 13.3805 68.8578 13.7385 68.2398 14.3658C67.6217 14.9932 67.2765 15.8393 67.2792 16.72C67.2792 18.55 68.7792 20.07 70.5792 20.07ZM76.0492 16.71C76.0492 19.71 73.5992 22.15 70.5792 22.15C69.8622 22.1513 69.1519 22.0114 68.489 21.7382C67.826 21.465 67.2234 21.064 66.7155 20.5579C66.2075 20.0518 65.8042 19.4506 65.5286 18.7887C65.253 18.1268 65.1105 17.417 65.1092 16.7C65.1105 15.2493 65.6881 13.8585 66.7149 12.8336C67.2233 12.3261 67.8266 11.9238 68.4905 11.6495C69.1544 11.3752 69.8659 11.2343 70.5842 11.235C71.3025 11.2357 72.0137 11.3778 72.6771 11.6533C73.3405 11.9288 73.9431 12.3323 74.4506 12.8407C74.9581 13.3491 75.3605 13.9524 75.6347 14.6163C75.909 15.2802 76.0499 15.9917 76.0492 16.71ZM86.8492 21.88H84.7092V21.55V14.54C84.7159 14.4494 84.6992 14.3585 84.6607 14.2762C84.6221 14.1939 84.5631 14.1229 84.4892 14.07C83.8945 13.6434 83.1811 13.414 82.4492 13.414C81.7173 13.414 81.0039 13.6434 80.4092 14.07C80.3369 14.1197 80.2787 14.1873 80.2402 14.2661C80.2016 14.345 80.1841 14.4324 80.1892 14.52V21.87H78.0392V21.57V13.77C78.0392 13.53 78.0992 13.36 78.2392 13.19C78.8013 12.511 79.5231 11.982 80.3398 11.6504C81.1566 11.3188 82.0428 11.195 82.9192 11.29C84.4692 11.41 85.7492 12.07 86.7192 13.29C86.7992 13.38 86.8692 13.52 86.8692 13.64V21.72L86.8592 21.88H86.8492ZM33.0992 0.200001H32.9992C33.2333 0.202016 33.4671 0.218716 33.6992 0.250001H33.7492L33.9492 0.280001L34.1492 0.320001L34.2092 0.330001L34.3892 0.380001H34.4092L34.5792 0.430001L34.6592 0.460001C34.7092 0.460001 34.7592 0.480001 34.7992 0.500001L34.8592 0.520001L35.0392 0.590001L35.0692 0.600001C35.3592 0.720001 35.6292 0.860001 35.8892 1.02L35.9292 1.05C36.0592 1.12 36.1692 1.2 36.2892 1.29L36.3092 1.31H36.3292C36.6038 1.5191 36.8583 1.75346 37.0892 2.01L37.1292 2.06L37.2292 2.17L37.2692 2.23C37.5093 2.51997 37.7172 2.83515 37.8892 3.17L37.9392 3.27L37.9592 3.32C38.3092 4.04 38.4992 4.85 38.4992 5.7V23.96C38.5003 25.3814 37.9512 26.748 36.9668 27.7733C35.9825 28.7987 34.6394 29.4031 33.2192 29.46H32.9992C31.5405 29.46 30.1416 28.8805 29.1101 27.8491C28.0787 26.8176 27.4992 25.4187 27.4992 23.96V22.14L23.6492 27.26C22.7961 28.3892 21.5406 29.1462 20.1437 29.3734C18.7469 29.6006 17.3162 29.2806 16.1492 28.48L15.9492 28.34C14.8383 27.5034 14.0855 26.277 13.8424 24.9077C13.5994 23.5384 13.8841 22.1278 14.6392 20.96L9.8892 27.26C9.03614 28.3892 7.78062 29.1462 6.38375 29.3734C4.98688 29.6006 3.55619 29.2806 2.3892 28.48L2.1892 28.34C1.02534 27.4618 0.257807 26.1574 0.0552902 24.7136C-0.147227 23.2697 0.23185 21.8045 1.1092 20.64L14.8592 2.4C15.7255 1.2869 16.9864 0.549174 18.3812 0.339294C19.776 0.129414 21.1981 0.463423 22.3536 1.27229C23.5091 2.08116 24.3097 3.30305 24.5899 4.68543C24.8701 6.06782 24.6085 7.50502 23.8592 8.7L28.6092 2.4L28.6192 2.38C28.7811 2.16746 28.9583 1.96693 29.1492 1.78L29.2092 1.73L29.3092 1.63L29.3592 1.59C29.7326 1.2606 30.1499 0.984636 30.5992 0.770001L30.6392 0.750001L30.7992 0.680001L30.8492 0.650001L30.9992 0.600001L31.0392 0.580001L31.2192 0.510001C31.6591 0.36204 32.1162 0.271295 32.5792 0.240001H32.6292C32.7256 0.229857 32.8223 0.223186 32.9192 0.220001H33.0992V0.200001Z" fill="white"/>
</svg>
