<svg width="124" height="30" viewBox="0 0 124 30" fill="none" xmlns="http://www.w3.org/2000/svg">
<path fill-rule="evenodd" clip-rule="evenodd" d="M48.2695 8.40025H50.1695C50.2395 8.40025 50.3295 8.50025 50.3695 8.58025L55.0995 17.6403C55.1395 17.7203 55.1895 17.7903 55.2195 17.8803C55.2795 18.0403 55.3795 18.1003 55.5595 18.1003C55.7395 18.1003 55.8295 18.0403 55.9095 17.8903L58.9695 12.0703L60.8195 8.58025C60.8595 8.50025 60.9595 8.40025 61.0395 8.40025H62.8895V21.8803H60.7495V13.2803L60.6795 13.2603L60.3295 13.8903L57.0995 19.9303C56.9995 20.1003 56.8995 20.1703 56.6995 20.2103C55.9713 20.3328 55.2277 20.3328 54.4995 20.2103C54.3978 20.2015 54.3001 20.1665 54.216 20.1086C54.1318 20.0508 54.0641 19.9721 54.0195 19.8803L50.6195 13.5103C50.5825 13.4285 50.5191 13.3616 50.4395 13.3203V21.8703H48.2695V8.40025ZM108.3 16.7103C108.3 15.9803 108.26 15.2403 108.31 14.5103C108.34 14.0503 108.15 13.8303 107.78 13.6903C107.166 13.4022 106.479 13.3082 105.811 13.4208C105.143 13.5334 104.525 13.8471 104.04 14.3203C103.546 14.8 103.211 15.4202 103.083 16.0966C102.954 16.7729 103.037 17.4726 103.32 18.1003C103.509 18.5337 103.789 18.9215 104.14 19.2377C104.492 19.5538 104.907 19.791 105.358 19.9331C105.809 20.0752 106.286 20.1191 106.755 20.0616C107.224 20.0042 107.676 19.8469 108.08 19.6003C108.23 19.5003 108.31 19.3903 108.3 19.2003V16.7003V16.7103ZM108.3 11.7103V7.51025H110.46V20.1403C110.46 20.3403 110.4 20.4803 110.26 20.6103C107.36 23.4003 102.26 22.3503 101.06 18.1503C100.859 17.422 100.812 16.6597 100.923 15.9125C101.034 15.1652 101.3 14.4494 101.704 13.811C102.108 13.1726 102.641 12.6256 103.269 12.2053C103.897 11.785 104.605 11.5006 105.35 11.3703C106.253 11.1949 107.189 11.2887 108.04 11.6403L108.3 11.7403V11.7103ZM96.9795 15.6003C96.9997 15.2201 96.9175 14.8414 96.7416 14.5037C96.5658 14.1661 96.3026 13.8817 95.9795 13.6803C94.3295 12.5703 92.1095 13.2503 91.2495 15.1403C91.1795 15.2803 91.1295 15.4403 91.0695 15.6003H96.9795ZM99.0795 17.4203H90.9795C91.0595 18.0903 91.3595 18.6203 91.7995 19.0503C92.2797 19.5498 92.8899 19.9053 93.5613 20.0767C94.2327 20.2481 94.9386 20.2285 95.5995 20.0203C96.578 19.7634 97.4714 19.2528 98.1895 18.5403L98.4095 18.3603L98.4295 18.6303V20.2303C98.4351 20.3173 98.4198 20.4044 98.385 20.4844C98.3502 20.5644 98.297 20.6349 98.2295 20.6903C97.3624 21.5062 96.2457 22.0064 95.0595 22.1103C94.0756 22.2496 93.0724 22.1163 92.159 21.7249C91.2456 21.3334 90.4572 20.6989 89.8795 19.8903C89.3884 19.2058 89.0617 18.4173 88.9249 17.586C88.788 16.7548 88.8446 15.9032 89.0903 15.0974C89.336 14.2915 89.7642 13.5532 90.3416 12.9398C90.919 12.3263 91.6301 11.8543 92.4195 11.5603C94.3695 10.8603 96.7195 11.3803 97.9895 12.8303C98.4392 13.3705 98.774 13.9967 98.9734 14.6707C99.1729 15.3447 99.2328 16.0523 99.1495 16.7503C99.1395 16.9703 99.1095 17.1903 99.0795 17.4203Z" fill="white"/>
<path fill-rule="evenodd" clip-rule="evenodd" d="M117.89 20.07C119.67 20.07 121.19 18.53 121.19 16.71C121.19 14.9 119.69 13.38 117.9 13.37C117.011 13.3687 116.159 13.7203 115.53 14.3476C114.9 14.9749 114.546 15.8265 114.545 16.715C114.544 17.6035 114.895 18.4561 115.523 19.0853C116.15 19.7144 117.001 20.0687 117.89 20.07ZM123.37 16.72C123.37 19.72 120.91 22.15 117.89 22.15C117.173 22.1513 116.463 22.0114 115.8 21.7382C115.137 21.465 114.534 21.0639 114.026 20.5579C113.518 20.0518 113.115 19.4506 112.839 18.7887C112.564 18.1267 112.421 17.417 112.42 16.7C112.421 15.2479 112.999 13.8559 114.027 12.83C115.055 11.8042 116.448 11.2287 117.9 11.23C119.352 11.2313 120.744 11.8094 121.77 12.8371C122.796 13.8648 123.371 15.2579 123.37 16.71" fill="white"/>
<path fill-rule="evenodd" clip-rule="evenodd" d="M70.5792 20.0702C72.3592 20.0702 73.8792 18.5202 73.8792 16.7002C73.8715 15.8246 73.5223 14.9865 72.9059 14.3646C72.2896 13.7426 71.4547 13.3858 70.5792 13.3702C69.6986 13.3807 68.8578 13.7387 68.2398 14.366C67.6217 14.9934 67.2765 15.8395 67.2792 16.7202C67.2792 18.5502 68.7792 20.0702 70.5792 20.0702ZM76.0492 16.7102C76.0492 19.7102 73.5992 22.1502 70.5792 22.1502C69.8622 22.1515 69.1519 22.0116 68.489 21.7384C67.826 21.4652 67.2234 21.0641 66.7155 20.5581C66.2075 20.052 65.8042 19.4508 65.5286 18.7889C65.253 18.127 65.1105 17.4172 65.1092 16.7002C65.1105 15.2495 65.6881 13.8587 66.7149 12.8338C67.2233 12.3263 67.8266 11.9239 68.4905 11.6497C69.1544 11.3754 69.8659 11.2345 70.5842 11.2352C71.3025 11.2359 72.0137 11.378 72.6771 11.6535C73.3405 11.929 73.9431 12.3325 74.4506 12.8409C74.9581 13.3493 75.3605 13.9526 75.6347 14.6165C75.909 15.2804 76.0499 15.9919 76.0492 16.7102ZM86.8492 21.8802H84.7092V21.5502V14.5402C84.7159 14.4496 84.6992 14.3587 84.6607 14.2764C84.6221 14.1941 84.5631 14.1231 84.4892 14.0702C83.8945 13.6436 83.1811 13.4142 82.4492 13.4142C81.7173 13.4142 81.0039 13.6436 80.4092 14.0702C80.3369 14.1199 80.2787 14.1875 80.2402 14.2663C80.2016 14.3452 80.1841 14.4326 80.1892 14.5202V21.8702H78.0392V21.5702V13.7702C78.0392 13.5302 78.0992 13.3602 78.2392 13.1902C78.8013 12.5112 79.5231 11.9822 80.3398 11.6506C81.1566 11.319 82.0428 11.1952 82.9192 11.2902C84.4692 11.4102 85.7492 12.0702 86.7192 13.2902C86.7992 13.3802 86.8692 13.5202 86.8692 13.6402V21.7202L86.8592 21.8802H86.8492ZM33.0992 0.200195H32.9992C33.2333 0.202211 33.4671 0.21891 33.6992 0.250195H33.7492L33.9492 0.280195L34.1492 0.320195L34.2092 0.330195L34.3892 0.380195H34.4092L34.5792 0.430195L34.6592 0.460195C34.7092 0.460195 34.7592 0.480195 34.7992 0.500195L34.8592 0.520195L35.0392 0.590195L35.0692 0.600195C35.3592 0.720195 35.6292 0.860195 35.8892 1.0202L35.9292 1.0502C36.0592 1.1202 36.1692 1.2002 36.2892 1.2902L36.3092 1.3102H36.3292C36.6038 1.5193 36.8583 1.75365 37.0892 2.0102L37.1292 2.0602L37.2292 2.1702L37.2692 2.2302C37.5093 2.52016 37.7172 2.83534 37.8892 3.1702L37.9392 3.2702L37.9592 3.3202C38.3092 4.0402 38.4992 4.8502 38.4992 5.7002V23.9602C38.5003 25.3816 37.9512 26.7482 36.9668 27.7735C35.9825 28.7989 34.6394 29.4033 33.2192 29.4602H32.9992C31.5405 29.4602 30.1416 28.8807 29.1101 27.8493C28.0787 26.8178 27.4992 25.4189 27.4992 23.9602V22.1402L23.6492 27.2602C22.7961 28.3894 21.5406 29.1464 20.1437 29.3736C18.7469 29.6008 17.3162 29.2808 16.1492 28.4802L15.9492 28.3402C14.8383 27.5036 14.0855 26.2772 13.8424 24.9079C13.5994 23.5386 13.8841 22.128 14.6392 20.9602L9.8892 27.2602C9.03614 28.3894 7.78062 29.1464 6.38375 29.3736C4.98688 29.6008 3.55619 29.2808 2.3892 28.4802L2.1892 28.3402C1.02534 27.462 0.257807 26.1576 0.0552902 24.7138C-0.147227 23.2699 0.23185 21.8047 1.1092 20.6402L14.8592 2.4002C15.7255 1.28709 16.9864 0.549369 18.3812 0.339489C19.776 0.129609 21.1981 0.463618 22.3536 1.27248C23.5091 2.08135 24.3097 3.30324 24.5899 4.68563C24.8701 6.06801 24.6085 7.50521 23.8592 8.7002L28.6092 2.4002L28.6192 2.3802C28.7811 2.16765 28.9583 1.96713 29.1492 1.7802L29.2092 1.7302L29.3092 1.6302L29.3592 1.5902C29.7326 1.2608 30.1499 0.98483 30.5992 0.770195L30.6392 0.750195L30.7992 0.680195L30.8492 0.650195L30.9992 0.600195L31.0392 0.580195L31.2192 0.510195C31.6591 0.362234 32.1162 0.271489 32.5792 0.240195H32.6292C32.7256 0.230052 32.8223 0.223381 32.9192 0.220195H33.0992V0.200195Z" fill="white"/>
</svg>
