<svg width="124" height="30" viewBox="0 0 124 30" fill="none" xmlns="http://www.w3.org/2000/svg">
<path d="M48.2715 8.393C48.9145 8.393 49.5435 8.387 50.1715 8.401C50.2395 8.402 50.3285 8.501 50.3675 8.576C51.9475 11.596 53.5215 14.619 55.0965 17.641C55.1365 17.719 55.1865 17.795 55.2175 17.877C55.2775 18.042 55.3845 18.097 55.5625 18.099C55.7415 18.102 55.8325 18.037 55.9125 17.885C56.9295 15.944 57.9525 14.005 58.9745 12.065C59.5848 10.9019 60.1985 9.74056 60.8155 8.581C60.8585 8.501 60.9605 8.402 61.0375 8.401C61.6475 8.385 62.2605 8.392 62.8895 8.392V21.876H60.7555V13.277L60.6805 13.257C60.5645 13.468 60.4455 13.68 60.3305 13.893C59.2525 15.903 58.1725 17.913 57.1015 19.926C57.0065 20.105 56.8925 20.175 56.7005 20.208C55.9728 20.3338 55.2293 20.3372 54.5005 20.218C54.2705 20.18 54.1325 20.092 54.0205 19.88C52.8945 17.755 51.7565 15.636 50.6215 13.515C50.5843 13.4312 50.5198 13.3625 50.4385 13.32V21.874H48.2715V8.393ZM108.298 16.713C108.298 15.976 108.261 15.237 108.312 14.503C108.344 14.051 108.152 13.835 107.783 13.687L107.759 13.677C107.147 13.3943 106.463 13.3041 105.799 13.4184C105.134 13.5327 104.519 13.846 104.036 14.317C103.026 15.314 102.739 16.837 103.324 18.097C104.182 19.949 106.427 20.654 108.077 19.594C108.235 19.494 108.307 19.387 108.303 19.191C108.291 18.365 108.298 17.539 108.298 16.714V16.713ZM108.298 11.724V7.524H110.462V7.82C110.462 11.925 110.46 16.03 110.466 20.134C110.469 20.2213 110.452 20.308 110.416 20.3879C110.381 20.4678 110.329 20.5389 110.262 20.596C107.36 23.388 102.254 22.341 101.064 18.143C100.192 15.07 102.208 11.936 105.35 11.363C106.278 11.195 107.169 11.27 108.039 11.627C108.111 11.657 108.186 11.682 108.299 11.723L108.298 11.724ZM96.9835 15.614C97.0505 14.88 96.6635 14.154 95.9725 13.688C94.3255 12.575 92.1055 13.259 91.2485 15.147C91.1825 15.294 91.1335 15.448 91.0715 15.614H96.9835ZM99.0805 17.432H90.9775C91.0615 18.097 91.3575 18.623 91.8005 19.06C92.8755 20.122 94.1565 20.407 95.6055 20.025C96.5812 19.7688 97.4724 19.2605 98.1895 18.551C98.2445 18.498 98.3075 18.453 98.4075 18.369C98.4195 18.49 98.4315 18.563 98.4315 18.636C98.4335 19.169 98.4225 19.703 98.4375 20.236C98.4422 20.3234 98.4261 20.4108 98.3905 20.4907C98.3549 20.5707 98.3007 20.6411 98.2325 20.696C97.3305 21.518 96.2765 22.01 95.0585 22.116C92.9405 22.3 91.1505 21.641 89.8765 19.897C87.8125 17.071 88.9765 12.809 92.4205 11.571C94.3675 10.871 96.7245 11.385 97.9895 12.837C98.9705 13.965 99.2515 15.311 99.1535 16.764C99.1395 16.982 99.1065 17.199 99.0805 17.432ZM117.886 20.071C119.673 20.074 121.194 18.528 121.193 16.711C121.191 14.895 119.693 13.374 117.901 13.369C116.091 13.363 114.587 14.879 114.586 16.709C114.584 18.533 116.091 20.067 117.886 20.071ZM123.369 16.713C123.367 19.713 120.913 22.147 117.889 22.146C114.871 22.144 112.404 19.686 112.423 16.699C112.443 13.691 114.897 11.266 117.917 11.272C120.913 11.278 123.37 13.73 123.369 16.713ZM70.5795 20.07C72.3655 20.07 73.8865 18.516 73.8765 16.703C73.8665 14.883 72.3665 13.366 70.5785 13.369C68.7615 13.372 67.2725 14.881 67.2745 16.718C67.2765 18.545 68.7805 20.071 70.5805 20.071L70.5795 20.07ZM76.0505 16.711C76.0535 19.713 73.6025 22.146 70.5765 22.146C67.5565 22.146 65.0975 19.696 65.1095 16.701C65.1215 13.711 67.5705 11.275 70.5715 11.272C73.5895 11.268 76.0485 13.709 76.0515 16.71L76.0505 16.711ZM86.8585 21.876H84.7135V21.548C84.7135 19.21 84.7105 16.872 84.7195 14.535C84.7249 14.4437 84.7068 14.3525 84.6669 14.2702C84.627 14.1879 84.5666 14.1173 84.4915 14.065C83.3765 13.191 81.5135 13.193 80.4095 14.07C80.3381 14.12 80.2806 14.1874 80.2424 14.2658C80.2043 14.3441 80.1868 14.431 80.1915 14.518C80.1995 16.856 80.1965 19.194 80.1965 21.531V21.87H78.0385V21.576C78.0385 18.971 78.0415 16.367 78.0325 13.762C78.0325 13.53 78.1035 13.355 78.2475 13.187C79.4785 11.747 81.0665 11.163 82.9225 11.295C84.4695 11.405 85.7505 12.067 86.7265 13.285C86.8035 13.38 86.8665 13.519 86.8665 13.638C86.8745 16.332 86.8715 19.025 86.8715 21.718C86.8715 21.762 86.8645 21.806 86.8585 21.876Z" fill="black"/>
<path d="M33.5539 29.959C32.0711 29.959 30.649 29.37 29.6005 28.3214C28.5519 27.2729 27.9629 25.8508 27.9629 24.368V5.805C27.9629 4.32204 28.552 2.89982 29.6006 1.85121C30.6492 0.802604 32.0714 0.213501 33.5544 0.213501C35.0373 0.213501 36.4596 0.802604 37.5082 1.85121C38.5568 2.89982 39.1459 4.32204 39.1459 5.805V24.368C39.1456 25.8509 38.5564 27.273 37.5077 28.3215C36.459 29.37 35.0368 29.959 33.5539 29.959Z" fill="#06038D"/>
<path d="M16.4436 1.17C15.9299 1.51608 15.4774 1.94528 15.1046 2.44L1.12665 20.99C0.259608 22.1759 -0.105929 23.6554 0.109047 25.1087C0.324023 26.5619 1.10224 27.8722 2.2755 28.7563C3.44875 29.6404 4.92279 30.0274 6.37901 29.8334C7.83523 29.6395 9.15665 28.8803 10.0576 27.72L13.9806 22.514V5.805C13.9806 3.875 14.9576 2.175 16.4436 1.17Z" fill="#1E50F1"/>
<path d="M36.9173 1.34C35.7331 0.447802 34.2429 0.0624778 32.7746 0.268757C31.3063 0.475036 29.98 1.25603 29.0873 2.44L25.1603 7.65V24.368C25.1619 25.5136 24.8099 26.6318 24.1523 27.57L38.0173 9.17C38.9095 7.98571 39.2949 6.49557 39.0886 5.02724C38.8823 3.55891 38.1013 2.23261 36.9173 1.34Z" fill="#335FEA"/>
<path d="M15.1105 20.99L24.2585 8.85C24.7952 8.02391 25.1043 7.0707 25.1543 6.08682C25.2044 5.10294 24.9936 4.12329 24.5435 3.247C24.5048 3.1721 24.4645 3.09808 24.4225 3.025C24.4142 3.01065 24.4058 2.99631 24.3975 2.982C24.3626 2.92264 24.3266 2.86396 24.2895 2.806C24.2756 2.78426 24.2616 2.76259 24.2475 2.741C24.2139 2.6905 24.1795 2.6405 24.1445 2.591C24.1265 2.563 24.1075 2.537 24.0885 2.511C24.0551 2.46517 24.0211 2.41983 23.9865 2.375L23.9215 2.293C23.8851 2.24846 23.8481 2.20445 23.8105 2.161L23.7455 2.086C23.7023 2.03756 23.6583 1.98989 23.6135 1.943L23.5625 1.89C23.5061 1.83271 23.4484 1.7767 23.3895 1.722L23.3695 1.702C23.2306 1.57417 23.0854 1.45336 22.9345 1.34C22.4122 0.945377 21.8246 0.645802 21.1985 0.455001L21.1735 0.448001C21.0953 0.424398 21.0166 0.402394 20.9375 0.382001L20.8885 0.372001C20.8171 0.353987 20.7454 0.337318 20.6735 0.322001L20.5965 0.310001C20.5333 0.297856 20.47 0.286854 20.4065 0.277001C20.3635 0.270001 20.3205 0.266001 20.2765 0.260001L20.1365 0.243001C20.0447 0.232944 19.9527 0.225275 19.8605 0.220001H19.8275C19.7459 0.216181 19.6642 0.214181 19.5825 0.214001L19.4725 0.216001C19.4175 0.216001 19.3625 0.218001 19.3095 0.220001C19.2545 0.222001 19.1995 0.227001 19.1455 0.231001L19.0415 0.239001C18.9757 0.245486 18.91 0.253154 18.8445 0.262001L18.7765 0.271001C18.7049 0.281384 18.6336 0.293053 18.5625 0.306001L18.5125 0.315001C18.4395 0.329284 18.3668 0.344954 18.2945 0.362001L18.2505 0.372001C18.1791 0.389356 18.1081 0.408026 18.0375 0.428001L17.9855 0.443001C17.9201 0.462411 17.8551 0.483081 17.7905 0.505001C17.7665 0.513001 17.7435 0.520001 17.7205 0.529001C17.6635 0.54871 17.6068 0.56938 17.5505 0.591001L17.4545 0.629001C17.4089 0.647753 17.3636 0.667088 17.3185 0.687001C17.2759 0.705769 17.2335 0.725104 17.1915 0.745001C17.1583 0.7607 17.1253 0.7767 17.0925 0.793001C17.039 0.81915 16.986 0.846154 16.9335 0.874001L16.8725 0.908001C16.8091 0.942739 16.7464 0.978746 16.6845 1.016L16.6555 1.033C16.5844 1.07632 16.5144 1.12133 16.4455 1.168L16.4435 1.17C15.6846 1.68162 15.063 2.37191 14.6336 3.18014C14.2041 3.98836 13.9798 4.88975 13.9805 5.805V22.515L14.8875 21.31C14.9581 21.2008 15.0325 21.0941 15.1105 20.99Z" fill="#316BFD"/>
<path d="M25.1611 7.649L24.2571 8.849C24.1865 8.95852 24.1121 9.06559 24.0341 9.17L14.8861 21.31C14.0971 22.5252 13.8106 23.9994 14.0872 25.4216C14.3637 26.8439 15.1816 28.1033 16.3684 28.9344C17.5553 29.7655 19.0185 30.1034 20.4496 29.8769C21.8807 29.6503 23.168 28.877 24.0401 27.72L24.1531 27.569C24.8105 26.6311 25.1625 25.5133 25.1611 24.368V7.649Z" fill="#4D7AF7"/>
</svg>
