<svg width="24" height="20" viewBox="0 0 24 20" fill="none" xmlns="http://www.w3.org/2000/svg">
<path fill-rule="evenodd" clip-rule="evenodd" d="M24 2.35938C23.112 2.76703 22.164 3.03879 21.168 3.16232C22.1955 2.52934 22.9635 1.53235 23.328 0.358204C22.38 0.938792 21.336 1.35879 20.208 1.5935C19.4692 0.782136 18.4916 0.243625 17.426 0.0610797C16.3603 -0.121466 15.266 0.0621015 14.3118 0.583451C13.3576 1.1048 12.5966 1.93495 12.1462 2.94577C11.6959 3.95659 11.5812 5.09189 11.82 6.17644C9.86435 6.0793 7.95026 5.56073 6.20153 4.65426C4.45279 3.74779 2.90832 2.4736 1.668 0.914087C1.03101 2.02442 0.833944 3.34467 1.11774 4.60065C1.40153 5.85663 2.14438 6.95182 3.192 7.65879C2.41091 7.63827 1.6458 7.42655 0.96 7.04115V7.09056C0.963102 8.2599 1.35917 9.39211 2.08099 10.295C2.80281 11.1979 3.8059 11.8159 4.92 12.0441C4.19221 12.2482 3.42863 12.2778 2.688 12.1306C3.00313 13.1356 3.61557 14.0141 4.43966 14.6431C5.26374 15.2722 6.25823 15.6203 7.284 15.6388C5.22174 17.3037 2.60231 18.0589 0 17.7388C2.25389 19.2206 4.87365 20.0052 7.548 19.9994C16.608 19.9994 21.552 12.3035 21.552 5.63291V4.9782C22.512 4.26173 23.34 3.37232 24 2.35938Z" fill="#06038D"/>
</svg>
