<svg width="24" height="20" viewBox="0 0 24 20" fill="none" xmlns="http://www.w3.org/2000/svg">
<path fill-rule="evenodd" clip-rule="evenodd" d="M24 2.3592C23.112 2.76684 22.164 3.03861 21.168 3.16214C22.1955 2.52916 22.9635 1.53217 23.328 0.358021C22.38 0.938609 21.336 1.35861 20.208 1.59332C19.4692 0.781953 18.4916 0.243442 17.426 0.0608966C16.3603 -0.121649 15.266 0.0619184 14.3118 0.583268C13.3576 1.10462 12.5966 1.93476 12.1462 2.94558C11.6959 3.9564 11.5812 5.0917 11.82 6.17626C9.86435 6.07912 7.95026 5.56054 6.20153 4.65407C4.45279 3.7476 2.90832 2.47342 1.668 0.913903C1.03101 2.02424 0.833944 3.34449 1.11774 4.60047C1.40153 5.85645 2.14438 6.95164 3.192 7.65861C2.41091 7.63809 1.6458 7.42637 0.96 7.04096V7.09037C0.963102 8.25972 1.35917 9.39193 2.08099 10.2948C2.80281 11.1978 3.8059 11.8157 4.92 12.0439C4.19221 12.2481 3.42863 12.2776 2.688 12.1304C3.00313 13.1354 3.61557 14.0139 4.43966 14.643C5.26374 15.272 6.25823 15.6201 7.284 15.6386C5.22174 17.3035 2.60231 18.0587 0 17.7386C2.25389 19.2204 4.87365 20.005 7.548 19.9992C16.608 19.9992 21.552 12.3033 21.552 5.63273V4.97802C22.512 4.26155 23.34 3.37214 24 2.3592Z" fill="white"/>
</svg>
