<svg width="18" height="22" viewBox="0 0 18 22" fill="none" xmlns="http://www.w3.org/2000/svg">
<path d="M7.89465 1.1L7.89464 18.2453L1.89681 12.3493C1.47697 11.9093 0.772221 11.9093 0.337378 12.3493C-0.112459 12.7747 -0.112459 13.464 0.337378 13.904L8.20953 21.6773C8.26405 21.7323 8.32436 21.7815 8.38947 21.824L8.47943 21.868L8.68936 21.956L8.77932 21.9853L9.00424 22L9.22916 21.9853L9.31913 21.956L9.42409 21.912C9.46908 21.912 9.49906 21.8827 9.54405 21.8533C9.57404 21.8533 9.58903 21.8387 9.61902 21.8093C9.68341 21.7714 9.7437 21.7272 9.79895 21.6773L17.6711 13.904C17.8817 13.6977 18 13.4182 18 13.1267C18 12.8352 17.8817 12.5556 17.6711 12.3493C17.2363 11.9093 16.5315 11.9093 16.0967 12.3493L10.1138 18.2453V1.1C10.1139 0.810785 9.99745 0.533196 9.78978 0.327322C9.58211 0.121449 9.2999 0.00385621 9.00424 0C8.38947 -2.62838e-08 7.89465 0.498667 7.89465 1.1Z" fill="#0184D4"/>
</svg>
