<svg width="50" height="50" viewBox="0 0 50 50" fill="none" xmlns="http://www.w3.org/2000/svg">
    <g clip-path="url(#clip0)">
        <path d="M36.1357 28.9206C34.9124 28.7598 33.7057 28.4598 32.5524 28.0298C31.2725 27.5515 29.8175 27.8598 28.8416 28.8223L27.5942 30.0664C24.7933 28.3622 22.4376 26.0115 20.7284 23.2165L21.9776 21.9698C22.9393 20.9982 23.2501 19.5449 22.7693 18.2682C22.3377 17.114 22.0368 15.9107 21.8752 14.6824C21.6294 12.9458 20.1294 11.6242 18.3686 11.665H14.3462C14.2412 11.665 14.1362 11.67 14.0329 11.68C13.098 11.7633 12.2521 12.2067 11.6504 12.9258C11.0488 13.6466 10.7638 14.5574 10.8496 15.5041C11.3012 19.7498 12.7696 23.8882 15.0912 27.4656C17.2011 30.7797 20.0711 33.6447 23.3861 35.7471C26.9585 38.0587 31.0852 39.5246 35.3369 39.9855C35.4452 39.9954 35.5536 39.9996 35.6652 39.9996C36.6043 39.9963 37.4852 39.6279 38.1468 38.9605C38.8084 38.2954 39.1701 37.4121 39.1668 36.478V32.4731C39.2056 30.6956 37.9072 29.1699 36.1357 28.9206ZM37.5015 32.4656V36.4831C37.5031 36.9747 37.3131 37.438 36.9657 37.788C36.6182 38.138 36.1548 38.3314 35.664 38.333C35.604 38.333 35.544 38.3305 35.5006 38.3272C31.524 37.8963 27.6491 36.5197 24.2866 34.3439C21.1708 32.3681 18.4775 29.6798 16.4942 26.5657C14.3101 23.2007 12.9318 19.3158 12.5084 15.3425C12.4634 14.8524 12.6134 14.3741 12.9292 13.9967C13.2459 13.6184 13.6908 13.3859 14.1842 13.3417C14.2384 13.3367 14.2925 13.3334 14.3467 13.3334H18.3775C18.3825 13.3334 18.3892 13.3334 18.395 13.3334C19.3117 13.3334 20.0966 14.0117 20.2258 14.9117C20.4033 16.2567 20.7341 17.5834 21.2108 18.8567C21.4624 19.5275 21.2999 20.29 20.7983 20.7958L19.0957 22.4958C18.8291 22.7608 18.7741 23.1717 18.9599 23.4983C20.9424 26.9775 23.8323 29.8616 27.3173 31.8391C27.6432 32.0232 28.0523 31.969 28.3173 31.7041L30.0173 30.0083C30.5289 29.5041 31.2932 29.3392 31.9698 29.5942C33.2423 30.0683 34.5714 30.3984 35.9122 30.575C36.8414 30.7059 37.5247 31.51 37.5014 32.4458C37.5015 32.4515 37.5015 32.459 37.5015 32.4656Z"
              fill="#0184D4"/>
        <path d="M25.0002 0C11.2154 0 0.000478471 11.2149 0.000478471 24.9997C0.000478471 29.7671 1.34548 34.3888 3.89457 38.3962L0.0512591 48.8794C-0.0595794 49.1794 0.0120994 49.5169 0.235437 49.7461C0.395396 49.9111 0.612092 49.9994 0.83377 49.9994C0.922147 49.9994 1.01131 49.9853 1.09715 49.9569L11.9712 46.3329C15.8929 48.732 20.3886 49.9995 25.0003 49.9995C38.7851 49.9995 50 38.7846 50 24.9998C50 11.215 38.785 0 25.0002 0ZM25.001 48.3327C20.5727 48.3327 16.2586 47.0811 12.5261 44.7136C12.3912 44.6287 12.2361 44.5844 12.0794 44.5844C11.9903 44.5844 11.9019 44.5986 11.8161 44.6278L2.21198 47.8286L5.60364 38.5788C5.69445 38.3304 5.66281 38.0538 5.51702 37.833C2.99869 34.0188 1.66794 29.5814 1.66794 24.9998C1.66794 12.1341 12.1353 1.66678 25.001 1.66678C37.8666 1.66678 48.334 12.1341 48.334 24.9998C48.334 37.8655 37.8666 48.3327 25.001 48.3327Z"
              fill="#0184D4"/>
    </g>
    <defs>
        <clipPath id="clip0">
            <rect width="50" height="50" fill="white"/>
        </clipPath>
    </defs>
</svg>
