<svg width="50" height="50" viewBox="0 0 50 50" fill="none" xmlns="http://www.w3.org/2000/svg">
<path d="M25.0002 0C11.2154 0 0.000478471 11.2149 0.000478471 24.9997C0.000478471 29.7671 1.34548 34.3888 3.89457 38.3962L0.0512591 48.8794C-0.0595794 49.1794 0.0120994 49.5169 0.235437 49.7461C0.395396 49.9111 0.612092 49.9994 0.83377 49.9994C0.922147 49.9994 1.01131 49.9853 1.09715 49.9569L11.9712 46.3329C15.8929 48.732 20.3886 49.9995 25.0003 49.9995C38.7851 49.9995 50 38.7846 50 24.9998C50 11.215 38.785 0 25.0002 0ZM25.001 48.3327C20.5727 48.3327 16.2586 47.0811 12.5261 44.7136C12.3912 44.6287 12.2361 44.5844 12.0794 44.5844C11.9903 44.5844 11.9019 44.5986 11.8161 44.6278L2.21198 47.8286L5.60364 38.5788C5.69445 38.3304 5.66281 38.0538 5.51702 37.833C2.99869 34.0188 1.66794 29.5814 1.66794 24.9998C1.66794 12.1341 12.1353 1.66678 25.001 1.66678C37.8666 1.66678 48.334 12.1341 48.334 24.9998C48.334 37.8655 37.8666 48.3327 25.001 48.3327Z" fill="#0184D4"/>
</svg>
