<svg width="15" height="15" viewBox="0 0 15 15" fill="none" xmlns="http://www.w3.org/2000/svg">
<path d="M14.4059 0.000201903C14.3844 0.000881005 14.363 0.0027612 14.3417 0.00583366H9.80365C9.72723 0.00475291 9.65136 0.0188709 9.58044 0.0473674C9.50953 0.0758639 9.44498 0.118171 9.39056 0.171829C9.33614 0.225487 9.29292 0.289426 9.26343 0.359931C9.23393 0.430435 9.21874 0.506099 9.21874 0.582525C9.21874 0.658952 9.23393 0.734616 9.26343 0.80512C9.29292 0.875625 9.33614 0.939564 9.39056 0.993222C9.44498 1.04688 9.50953 1.08919 9.58044 1.11768C9.65136 1.14618 9.72723 1.1603 9.80365 1.15922H13.025L5.93572 8.24849C5.88049 8.30166 5.83641 8.3653 5.80607 8.4357C5.77573 8.5061 5.75973 8.58185 5.759 8.65851C5.75827 8.73516 5.77283 8.8112 5.80183 8.88216C5.83083 8.95313 5.87369 9.0176 5.9279 9.07181C5.98211 9.12601 6.04658 9.16887 6.11754 9.19787C6.18851 9.22687 6.26454 9.24143 6.3412 9.24071C6.41786 9.23998 6.4936 9.22398 6.564 9.19363C6.6344 9.16329 6.69805 9.11922 6.75121 9.06399L13.8405 1.97472V5.19606C13.8394 5.27248 13.8535 5.34835 13.882 5.41926C13.9105 5.49018 13.9528 5.55472 14.0065 5.60914C14.0601 5.66357 14.1241 5.70678 14.1946 5.73628C14.2651 5.76577 14.3408 5.78096 14.4172 5.78096C14.4936 5.78096 14.5693 5.76577 14.6398 5.73628C14.7103 5.70678 14.7742 5.66357 14.8279 5.60914C14.8815 5.55472 14.9238 5.49018 14.9523 5.41926C14.9808 5.34835 14.995 5.27248 14.9939 5.19606V0.655765C15.0054 0.572738 14.9986 0.488207 14.9741 0.408055C14.9496 0.327904 14.9079 0.254059 14.8519 0.191662C14.796 0.129265 14.7271 0.0798153 14.65 0.0467564C14.573 0.0136975 14.4897 -0.0021765 14.4059 0.000239714L14.4059 0.000201903Z" fill="#195491"/>
<path d="M6.34362 2.31269C4.90431 2.31269 3.81662 2.31063 2.94991 2.40844C2.08325 2.50624 1.38949 2.71242 0.893193 3.20929C0.396892 3.70615 0.192974 4.3986 0.0957437 5.26491C-0.00152111 6.13115 1.403e-06 7.21874 1.403e-06 8.65637C1.403e-06 10.0944 -0.00119237 11.1823 0.0979928 12.0489C0.197178 12.9156 0.405889 13.6085 0.903343 14.1046C1.40079 14.6006 2.09329 14.8064 2.95896 14.9043C3.82463 15.0021 4.90997 15 6.34362 15C7.77745 15 8.8625 15.0006 9.72828 14.902C10.5941 14.8034 11.2879 14.5966 11.785 14.1001C12.2821 13.6035 12.4889 12.9107 12.5881 12.0444C12.6873 11.1782 12.6872 10.0919 12.6872 8.65637C12.6883 8.57995 12.6742 8.50408 12.6457 8.43317C12.6172 8.36225 12.5749 8.29771 12.5212 8.24329C12.4676 8.18886 12.4036 8.14565 12.3331 8.11615C12.2626 8.08666 12.187 8.07147 12.1105 8.07147C12.0341 8.07147 11.9584 8.08666 11.8879 8.11615C11.8174 8.14565 11.7535 8.18886 11.6998 8.24329C11.6462 8.29771 11.6039 8.36225 11.5754 8.43317C11.5469 8.50408 11.5328 8.57995 11.5338 8.65637C11.5338 10.0908 11.5289 11.1606 11.4426 11.9138C11.3564 12.667 11.1975 13.0568 10.9695 13.2846C10.7416 13.5122 10.3518 13.6707 9.59874 13.7565C8.8457 13.8423 7.77651 13.8466 6.34361 13.8466C4.91053 13.8466 3.84163 13.8427 3.08847 13.7576C2.33531 13.6725 1.94529 13.5149 1.71767 13.2879C1.49005 13.061 1.33086 12.6708 1.24461 11.9171C1.15835 11.1635 1.15337 10.0932 1.15337 8.65635C1.15337 7.21912 1.15656 6.14849 1.24123 5.39447C1.32589 4.64044 1.48386 4.251 1.70979 4.02482C1.93572 3.79864 2.32518 3.64025 3.07943 3.55514C3.83369 3.47002 4.90489 3.46615 6.34362 3.46615C6.42004 3.46723 6.49591 3.45312 6.56683 3.42462C6.63774 3.39612 6.70229 3.35382 6.75671 3.30016C6.81113 3.2465 6.85434 3.18256 6.88384 3.11206C6.91334 3.04155 6.92853 2.96589 6.92853 2.88946C6.92853 2.81303 6.91334 2.73737 6.88384 2.66687C6.85434 2.59636 6.81113 2.53242 6.75671 2.47876C6.70229 2.42511 6.63774 2.3828 6.56683 2.3543C6.49591 2.32581 6.42004 2.31169 6.34362 2.31277V2.31269Z" fill="#195491"/>
</svg>
