<svg width="104" height="24" viewBox="0 0 104 24" fill="none" xmlns="http://www.w3.org/2000/svg">
<path fill-rule="evenodd" clip-rule="evenodd" d="M40.4846 6.7203H42.0781C42.1368 6.7203 42.2123 6.8003 42.2458 6.8643L46.2129 14.1123C46.2465 14.1763 46.2884 14.2323 46.3136 14.3043C46.3639 14.4323 46.4478 14.4803 46.5988 14.4803C46.7497 14.4803 46.8252 14.4323 46.8923 14.3123L49.4588 9.6563L51.0104 6.8643C51.0439 6.8003 51.1278 6.7203 51.1949 6.7203H52.7465V17.5043H50.9517V10.6243L50.8929 10.6083L50.5994 11.1123L47.8904 15.9443C47.8065 16.0803 47.7226 16.1363 47.5549 16.1683C46.9441 16.2663 46.3205 16.2663 45.7097 16.1683C45.6244 16.1613 45.5425 16.1333 45.4719 16.087C45.4013 16.0407 45.3446 15.9778 45.3071 15.9043L42.4555 10.8083C42.4245 10.7429 42.3713 10.6894 42.3046 10.6563V17.4963H40.4846V6.7203ZM90.8323 13.3683C90.8323 12.7843 90.7987 12.1923 90.8407 11.6083C90.8658 11.2403 90.7065 11.0643 90.3962 10.9523C89.8817 10.7219 89.3057 10.6467 88.7452 10.7367C88.1847 10.8268 87.6664 11.0778 87.2594 11.4563C86.8451 11.8401 86.5649 12.3363 86.4569 12.8773C86.3488 13.4184 86.4182 13.9782 86.6555 14.4803C86.8142 14.827 87.0489 15.1373 87.3439 15.3902C87.6388 15.6432 87.9872 15.8329 88.3655 15.9466C88.7438 16.0603 89.1432 16.0953 89.5369 16.0494C89.9306 16.0035 90.3094 15.8776 90.6478 15.6803C90.7736 15.6003 90.8407 15.5123 90.8323 15.3603V13.3603V13.3683ZM90.8323 9.3683V6.0083H92.6439V16.1123C92.6439 16.2723 92.5936 16.3843 92.4762 16.4883C90.0439 18.7203 85.7665 17.8803 84.76 14.5203C84.5915 13.9377 84.5526 13.3279 84.6457 12.7301C84.7389 12.1322 84.962 11.5596 85.3008 11.0489C85.6396 10.5381 86.0866 10.1006 86.6131 9.76435C87.1396 9.4281 87.734 9.20055 88.3581 9.0963C89.1161 8.95598 89.9006 9.03109 90.6142 9.3123L90.8323 9.3923V9.3683ZM81.3381 12.4803C81.355 12.1761 81.2861 11.8732 81.1386 11.6031C80.9911 11.333 80.7704 11.1055 80.4994 10.9443C79.1155 10.0563 77.2536 10.6003 76.5323 12.1123C76.4736 12.2243 76.4317 12.3523 76.3813 12.4803H81.3381ZM83.0994 13.9363H76.3059C76.3729 14.4723 76.6246 14.8963 76.9936 15.2403C77.3963 15.6399 77.9081 15.9243 78.4712 16.0615C79.0343 16.1986 79.6264 16.1829 80.1807 16.0163C81.0014 15.8108 81.7507 15.4024 82.3529 14.8323L82.5375 14.6883L82.5542 14.9043V16.1843C82.5589 16.2539 82.5461 16.3236 82.5169 16.3876C82.4877 16.4516 82.443 16.508 82.3865 16.5523C81.6592 17.2051 80.7226 17.6053 79.7278 17.6883C78.9026 17.7998 78.0611 17.6932 77.2951 17.38C76.529 17.0668 75.8677 16.5592 75.3833 15.9123C74.9714 15.3647 74.6974 14.7339 74.5826 14.0689C74.4678 13.4039 74.5153 12.7226 74.7214 12.078C74.9274 11.4333 75.2866 10.8427 75.7708 10.3519C76.2551 9.86117 76.8515 9.48351 77.5136 9.2483C79.1491 8.6883 81.12 9.1043 82.1852 10.2643C82.5623 10.6965 82.8431 11.1975 83.0104 11.7367C83.1777 12.2759 83.2279 12.8419 83.1581 13.4003C83.1497 13.5763 83.1246 13.7523 83.0994 13.9363Z" fill="#B9BDC2"/>
<path fill-rule="evenodd" clip-rule="evenodd" d="M98.8755 16.0564C100.368 16.0564 101.643 14.8244 101.643 13.3684C101.643 11.9204 100.385 10.7044 98.8839 10.6964C98.1387 10.6953 97.4236 10.9767 96.8959 11.4785C96.3682 11.9803 96.0711 12.6616 96.07 13.3724C96.0689 14.0832 96.3638 14.7652 96.8899 15.2686C97.4161 15.7719 98.1303 16.0553 98.8755 16.0564ZM103.472 13.3764C103.472 15.7764 101.408 17.7204 98.8755 17.7204C98.2741 17.7214 97.6784 17.6095 97.1224 17.3909C96.5664 17.1724 96.0609 16.8515 95.6349 16.4467C95.2089 16.0418 94.8707 15.5609 94.6395 15.0313C94.4084 14.5018 94.2888 13.934 94.2877 13.3604C94.2888 12.1987 94.7737 11.0851 95.6356 10.2644C96.4976 9.44376 97.666 8.98332 98.8839 8.98438C100.102 8.98544 101.269 9.44792 102.13 10.2701C102.99 11.0922 103.473 12.2067 103.472 13.3684" fill="#B9BDC2"/>
<path fill-rule="evenodd" clip-rule="evenodd" d="M59.1961 16.0562C60.689 16.0562 61.9639 14.8162 61.9639 13.3602C61.9574 12.6597 61.6645 11.9892 61.1476 11.4916C60.6306 10.9941 59.9304 10.7086 59.1961 10.6962C58.4576 10.7046 57.7524 10.9909 57.234 11.4928C56.7157 11.9947 56.4261 12.6716 56.4284 13.3762C56.4284 14.8402 57.6865 16.0562 59.1961 16.0562ZM63.7839 13.3682C63.7839 15.7682 61.729 17.7202 59.1961 17.7202C58.5948 17.7212 57.9991 17.6093 57.4431 17.3907C56.887 17.1722 56.3816 16.8513 55.9556 16.4465C55.5296 16.0416 55.1913 15.5607 54.9602 15.0311C54.729 14.5016 54.6095 13.9338 54.6084 13.3602C54.6095 12.1996 55.0939 11.0869 55.9551 10.267C56.3815 9.86105 56.8875 9.53916 57.4444 9.31973C58.0012 9.1003 58.5979 8.98763 59.2003 8.98816C59.8028 8.98868 60.3993 9.10239 60.9557 9.32279C61.5121 9.54319 62.0175 9.86596 62.4431 10.2727C62.8687 10.6794 63.2062 11.1621 63.4363 11.6932C63.6663 12.2244 63.7844 12.7935 63.7839 13.3682ZM72.8419 17.5042H71.0471V17.2402V11.6322C71.0527 11.5597 71.0387 11.487 71.0064 11.4211C70.9741 11.3553 70.9246 11.2985 70.8626 11.2562C70.3638 10.9149 69.7654 10.7314 69.1516 10.7314C68.5378 10.7314 67.9394 10.9149 67.4407 11.2562C67.38 11.296 67.3312 11.35 67.2989 11.4131C67.2665 11.4761 67.2518 11.5461 67.2561 11.6162V17.4962H65.4529V17.2562V11.0162C65.4529 10.8242 65.5032 10.6882 65.6207 10.5522C66.0921 10.009 66.6975 9.58577 67.3825 9.3205C68.0675 9.05523 68.8108 8.95616 69.5458 9.03216C70.8458 9.12816 71.9194 9.65616 72.7329 10.6322C72.8 10.7042 72.8587 10.8162 72.8587 10.9122V17.3762L72.8503 17.5042H72.8419ZM27.7613 0.160156H27.6774C27.8738 0.161769 28.0699 0.175128 28.2645 0.200156H28.3065L28.4742 0.224156L28.6419 0.256156L28.6923 0.264156L28.8432 0.304156H28.86L29.0026 0.344156L29.0697 0.368156C29.1116 0.368156 29.1536 0.384156 29.1871 0.400156L29.2374 0.416156L29.3884 0.472156L29.4136 0.480156C29.6568 0.576156 29.8832 0.688156 30.1013 0.816156L30.1348 0.840156C30.2439 0.896156 30.3361 0.960156 30.4368 1.03216L30.4536 1.04816H30.4703C30.7007 1.21544 30.9141 1.40292 31.1077 1.60816L31.1413 1.64816L31.2252 1.73616L31.2587 1.78416C31.4601 2.01613 31.6344 2.26827 31.7787 2.53616L31.8207 2.61616L31.8374 2.65616C32.131 3.23216 32.2903 3.88016 32.2903 4.56016V19.1682C32.2913 20.3052 31.8307 21.3985 31.0051 22.2188C30.1795 23.0391 29.0531 23.5227 27.8619 23.5682H27.6774C26.454 23.5682 25.2807 23.1046 24.4156 22.2794C23.5505 21.4543 23.0645 20.3351 23.0645 19.1682V17.7122L19.8355 21.8082C19.12 22.7115 18.067 23.3171 16.8954 23.4989C15.7239 23.6806 14.5239 23.4247 13.5452 22.7842L13.3774 22.6722C12.4457 22.0029 11.8143 21.0218 11.6105 19.9263C11.4066 18.8309 11.6454 17.7024 12.2787 16.7682L8.29485 21.8082C7.57938 22.7115 6.52636 23.3171 5.35479 23.4989C4.18323 23.6806 2.98329 23.4247 2.00453 22.7842L1.83678 22.6722C0.860648 21.9696 0.216907 20.9261 0.0470536 19.771C-0.122799 18.6159 0.195136 17.4437 0.930978 16.5122L12.4632 1.92016C13.1898 1.02968 14.2473 0.439495 15.4171 0.271591C16.587 0.103687 17.7797 0.370894 18.7489 1.01799C19.718 1.66508 20.3895 2.6426 20.6245 3.7485C20.8595 4.85441 20.6401 6.00417 20.0116 6.96016L23.9955 1.92016L24.0039 1.90416C24.1397 1.73412 24.2883 1.5737 24.4484 1.42416L24.4987 1.38416L24.5826 1.30416L24.6245 1.27216C24.9377 1.00864 25.2877 0.787864 25.6645 0.616156L25.6981 0.600156L25.8323 0.544156L25.8742 0.520156L26 0.480156L26.0336 0.464156L26.1845 0.408156C26.5535 0.289788 26.9368 0.217191 27.3252 0.192156H27.3671C27.448 0.184042 27.5291 0.178705 27.6103 0.176156H27.7613V0.160156Z" fill="#B9BDC2"/>
</svg>
