<svg width="40" height="40" viewBox="0 0 40 40" fill="none" xmlns="http://www.w3.org/2000/svg">
<circle cx="20" cy="20" r="20" fill="#EC8225"/>
<path d="M11.8777 20.906C11.1936 22.2508 11.9704 22.8936 13.7426 23.9918C15.2492 24.9225 17.3306 25.2629 18.6675 25.3991C18.1196 25.9258 20.6306 23.5108 13.3989 30.4669C11.8655 31.9366 14.3341 34.2948 15.8664 32.8562L20.0146 28.8554C21.6026 30.3832 23.1249 31.8474 24.1628 32.8618C25.6962 34.3059 28.1636 31.9679 26.647 30.4724C26.5332 30.3642 21.0257 25.081 21.3616 25.4047C22.7153 25.2685 24.7654 24.908 26.2542 23.9974L26.253 23.9963C28.0253 22.8925 28.802 22.2508 28.1279 20.906C27.7206 20.1427 26.6224 19.5043 25.1605 20.6081C25.1605 20.6081 23.1863 22.1202 20.0023 22.1202C16.8172 22.1202 14.8441 20.6081 14.8441 20.6081C13.3832 19.4987 12.2806 20.1427 11.8777 20.906Z" fill="white"/>
<path d="M20 20.0132C23.8815 20.0132 27.051 16.9799 27.051 13.2457C27.051 9.49596 23.8815 6.46265 20 6.46265C16.1174 6.46265 12.948 9.49596 12.948 13.2457C12.948 16.9799 16.1174 20.0132 20 20.0132ZM20 9.89883C21.9073 9.89883 23.463 11.3954 23.463 13.2457C23.463 15.0805 21.9073 16.577 20 16.577C18.0928 16.577 16.5371 15.0805 16.5371 13.2457C16.536 11.3943 18.0917 9.89883 20 9.89883Z" fill="white"/>
</svg>
