<svg width="17" height="19" viewBox="0 0 17 19" fill="none" xmlns="http://www.w3.org/2000/svg">
<g clip-path="url(#clip0)">
<path d="M9.06667 4.89116C8.75387 4.89116 8.5 5.16507 8.5 5.50256C8.5 5.84005 8.75387 6.11396 9.06667 6.11396C10.3167 6.11396 11.3333 7.2108 11.3333 8.55955C11.3333 8.89704 11.5872 9.17095 11.9 9.17095C12.2128 9.17095 12.4667 8.89704 12.4667 8.55955C12.4667 6.53704 10.9412 4.89116 9.06667 4.89116Z" fill="#0184D4"/>
<path d="M9.06667 2.44562C8.75387 2.44562 8.5 2.71952 8.5 3.05701C8.5 3.39451 8.75387 3.66841 9.06667 3.66841C11.5668 3.66841 13.6 5.86211 13.6 8.5596C13.6 8.89709 13.8539 9.17099 14.1667 9.17099C14.4795 9.17099 14.7333 8.89709 14.7333 8.5596C14.7333 5.18835 12.1913 2.44562 9.06667 2.44562Z" fill="#0184D4"/>
<path d="M9.06667 0C8.75387 0 8.5 0.273906 8.5 0.611398C8.5 0.94889 8.75387 1.2228 9.06667 1.2228C12.8169 1.2228 15.8667 4.51334 15.8667 8.55957C15.8667 8.89706 16.1205 9.17097 16.4333 9.17097C16.7461 9.17097 17 8.89706 17 8.55957C17 3.83958 13.4402 0 9.06667 0Z" fill="#0184D4"/>
<path d="M15.3 13.4507C13.6544 13.4507 12.087 13.0643 10.642 12.3025C10.506 12.2292 10.3496 12.2206 10.2079 12.2744C10.0651 12.3282 9.9484 12.4407 9.88267 12.5862L8.99187 14.5757C6.68667 13.1878 4.77813 11.1299 3.49293 8.6427L5.33573 7.67913C5.47173 7.60821 5.57487 7.48226 5.62473 7.32819C5.67347 7.17534 5.6644 7.00659 5.59753 6.85986C4.89147 5.30079 4.53333 3.60967 4.53333 1.83417C4.53333 1.49668 4.27947 1.22277 3.96667 1.22277H0.566667C0.253867 1.22277 0 1.49668 0 1.83417C0 10.9367 6.86347 18.3419 15.3 18.3419C15.6128 18.3419 15.8667 18.068 15.8667 17.7305V14.0621C15.8667 13.7246 15.6128 13.4507 15.3 13.4507Z" fill="#0184D4"/>
</g>
<defs>
<clipPath id="clip0">
<rect width="17" height="18.3419" fill="white"/>
</clipPath>
</defs>
</svg>
