<svg width="12" height="17" viewBox="0 0 12 17" fill="none" xmlns="http://www.w3.org/2000/svg">
<path d="M6.35563 0.522949C3.301 0.522949 0.815826 3.00812 0.815826 6.06275C0.815826 9.90209 6.36107 16.4604 6.36107 16.4604C6.36107 16.4604 11.8954 9.71327 11.8954 6.06275C11.8954 3.00812 9.41035 0.522949 6.35563 0.522949ZM8.0271 7.6848C7.56621 8.14559 6.96097 8.37604 6.35563 8.37604C5.75038 8.37604 5.14494 8.14559 4.68425 7.6848C3.76257 6.76322 3.76257 5.26364 4.68425 4.34196C5.13055 3.89547 5.72421 3.64955 6.35563 3.64955C6.98704 3.64955 7.58061 3.89556 8.0271 4.34196C8.94878 5.26364 8.94878 6.76322 8.0271 7.6848Z" fill="#0184D4"/>
</svg>
