<svg width="50" height="42" viewBox="0 0 50 42" fill="none" xmlns="http://www.w3.org/2000/svg">
<path d="M12.3147 11.7693L11.6295 11.0842C12.1759 10.3187 12.4986 9.38319 12.4986 8.37314C12.4986 5.79345 10.4 3.69482 7.82032 3.69482C5.24064 3.69482 3.14191 5.79345 3.14191 8.37314C3.14191 10.9528 5.24064 13.0514 7.82032 13.0514C8.86232 13.0514 9.8257 12.7087 10.6041 12.1305L11.2787 12.8051C11.4218 12.948 11.6093 13.0195 11.7967 13.0195C11.9841 13.0195 12.1716 12.948 12.3147 12.8051C12.6006 12.519 12.6006 12.0554 12.3147 11.7693ZM7.82032 11.5866C6.04825 11.5866 4.60675 10.145 4.60675 8.37314C4.60675 6.60126 6.04835 5.15967 7.82032 5.15967C9.5923 5.15967 11.0338 6.60126 11.0338 8.37314C11.0338 8.97821 10.8655 9.54452 10.5736 10.0283L9.78995 9.24462C9.50382 8.95868 9.04015 8.95868 8.75411 9.24462C8.46808 9.53075 8.46808 9.99442 8.75411 10.2805L9.55177 11.0781C9.05167 11.3994 8.45763 11.5866 7.82032 11.5866Z" fill="#0184D4"/>
<path d="M47.2949 0.538281L2.70537 0.538086C1.21367 0.538086 0 1.75166 0 3.24346V13.5029C0 14.9946 1.21367 16.2083 2.70537 16.2083L31.0264 16.2082C31.431 16.2082 31.7588 15.8804 31.7588 15.4758C31.7588 15.0712 31.431 14.7434 31.0264 14.7434H15.6703V2.00312H47.2949C47.9788 2.00312 48.5352 2.55947 48.5352 3.24336V13.5032C48.5352 14.187 47.9788 14.7434 47.2949 14.7434H43.1514C42.9208 14.7434 42.7037 14.8519 42.5653 15.0364L40.1923 18.2013L37.8183 15.0363C37.6799 14.8519 37.4628 14.7434 37.2323 14.7434H34.4442C34.0396 14.7434 33.7118 15.0712 33.7118 15.4758C33.7118 15.8804 34.0396 16.2082 34.4442 16.2082H36.8661L39.6064 19.8615C39.7448 20.046 39.9619 20.1545 40.1925 20.1545C40.423 20.1545 40.64 20.0459 40.7784 19.8614L43.5177 16.2082H47.2949C48.7864 16.2082 50 14.9947 50 13.5032V3.24336C50 1.75166 48.7864 0.538281 47.2949 0.538281ZM1.46484 13.5029V3.24346C1.46484 2.55937 2.02129 2.00293 2.70537 2.00293H14.2051V14.7435H2.70537C2.02129 14.7435 1.46484 14.1869 1.46484 13.5029Z" fill="#0184D4"/>
<path d="M43.6873 8.37329C43.6873 7.9687 43.3594 7.64087 42.9548 7.64087H18.5886C18.184 7.64087 17.8562 7.9687 17.8562 8.37329C17.8562 8.77788 18.184 9.10571 18.5886 9.10571H42.9548C43.3593 9.10571 43.6873 8.77788 43.6873 8.37329Z" fill="#0184D4"/>
<path d="M45.6169 5.94873C46.0215 5.94873 46.3493 5.6209 46.3493 5.21631C46.3493 4.81172 46.0215 4.48389 45.6169 4.48389H27.7614C27.3568 4.48389 27.029 4.81172 27.029 5.21631C27.029 5.6209 27.3568 5.94873 27.7614 5.94873H45.6169Z" fill="#0184D4"/>
<path d="M18.5886 5.94873H24.3102C24.7148 5.94873 25.0426 5.6209 25.0426 5.21631C25.0426 4.81172 24.7148 4.48389 24.3102 4.48389H18.5886C18.184 4.48389 17.8562 4.81172 17.8562 5.21631C17.8562 5.6209 18.184 5.94873 18.5886 5.94873Z" fill="#0184D4"/>
<path d="M25 12.2627H39.6987C40.1033 12.2627 40.4312 11.9349 40.4312 11.5303C40.4312 11.1257 40.1033 10.7979 39.6987 10.7979H25C24.5954 10.7979 24.2676 11.1257 24.2676 11.5303C24.2676 11.9349 24.5954 12.2627 25 12.2627Z" fill="#0184D4"/>
<path d="M18.5886 10.7979C18.184 10.7979 17.8562 11.1257 17.8562 11.5303C17.8562 11.9349 18.184 12.2627 18.5886 12.2627H21.5481C21.9527 12.2627 22.2805 11.9349 22.2805 11.5303C22.2805 11.1257 21.9527 10.7979 21.5481 10.7979H18.5886Z" fill="#0184D4"/>
<path d="M43.03 25.5877C43.0275 25.5811 43.0249 25.5745 43.0221 25.5679C42.8811 25.2247 42.5504 25.0032 42.1794 25.0032C42.1791 25.0032 42.1789 25.0032 42.1786 25.0032C41.8073 25.0035 41.4765 25.2256 41.3359 25.5694C41.3337 25.575 41.3314 25.5804 41.3294 25.586L38.3659 33.3667C38.2219 33.7448 38.4117 34.1679 38.7896 34.3119C39.1676 34.456 39.5908 34.2662 39.7348 33.8882L40.2932 32.4221H44.0435L44.596 33.8861C44.7066 34.1793 44.9853 34.3601 45.2813 34.3601C45.3672 34.3601 45.4547 34.3449 45.5398 34.3127C45.9182 34.17 46.1092 33.7474 45.9664 33.3689L43.03 25.5877ZM40.8511 30.9572L42.177 27.4761L43.4907 30.9572H40.8511Z" fill="#0184D4"/>
<path d="M47.2946 21.8458L2.70508 21.8455C1.21357 21.8455 0 23.0594 0 24.5515V34.8103C0 36.3024 1.21357 37.5164 2.70508 37.5164H6.48242L9.22168 41.1687C9.35996 41.3532 9.57705 41.4617 9.80752 41.4617H9.80762C10.0381 41.4617 10.2552 41.3532 10.3935 41.1688L13.1338 37.5164H15.8116C16.2162 37.5164 16.544 37.1885 16.544 36.7839C16.544 36.3793 16.2162 36.0515 15.8116 36.0515H12.7677C12.5372 36.0515 12.3201 36.16 12.1818 36.3444L9.80771 39.5086L7.43457 36.3445C7.29629 36.16 7.0791 36.0515 6.84863 36.0515H2.70508C2.02119 36.0515 1.46484 35.4947 1.46484 34.8103V24.5515C1.46484 23.8671 2.02119 23.3103 2.70508 23.3103H34.3297V36.0515H19.2295C18.8249 36.0515 18.4971 36.3793 18.4971 36.7839C18.4971 37.1885 18.8249 37.5164 19.2295 37.5164L47.2946 37.516C48.7863 37.516 50 36.3023 50 34.8106V24.5511C50 23.0594 48.7863 21.8458 47.2946 21.8458ZM48.5352 34.8106C48.5352 35.4947 47.9787 36.0511 47.2946 36.0511H35.7949V23.3106H47.2946C47.9787 23.3106 48.5352 23.867 48.5352 24.5511V34.8106Z" fill="#0184D4"/>
<path d="M7.04552 30.4138H31.4117C31.8163 30.4138 32.1442 30.086 32.1442 29.6814C32.1442 29.2768 31.8163 28.949 31.4117 28.949H7.04552C6.64093 28.949 6.3131 29.2768 6.3131 29.6814C6.3131 30.086 6.64103 30.4138 7.04552 30.4138Z" fill="#0184D4"/>
<path d="M22.9703 26.5244C22.9703 26.1198 22.6424 25.792 22.2379 25.792H4.38239C3.9778 25.792 3.64996 26.1198 3.64996 26.5244C3.64996 26.929 3.9778 27.2568 4.38239 27.2568H22.2379C22.6423 27.2568 22.9703 26.929 22.9703 26.5244Z" fill="#0184D4"/>
<path d="M31.4121 27.2568C31.8167 27.2568 32.1445 26.929 32.1445 26.5244C32.1445 26.1198 31.8167 25.792 31.4121 25.792H25.6905C25.2859 25.792 24.9581 26.1198 24.9581 26.5244C24.9581 26.929 25.2859 27.2568 25.6905 27.2568H31.4121Z" fill="#0184D4"/>
<path d="M10.3003 33.5706H24.999C25.4036 33.5706 25.7315 33.2427 25.7315 32.8381C25.7315 32.4335 25.4036 32.1057 24.999 32.1057H10.3003C9.89576 32.1057 9.56792 32.4335 9.56792 32.8381C9.56792 33.2427 9.89585 33.5706 10.3003 33.5706Z" fill="#0184D4"/>
<path d="M31.4114 32.1057H28.4519C28.0473 32.1057 27.7195 32.4335 27.7195 32.8381C27.7195 33.2427 28.0473 33.5706 28.4519 33.5706H31.4114C31.816 33.5706 32.1438 33.2427 32.1438 32.8381C32.1438 32.4335 31.816 32.1057 31.4114 32.1057Z" fill="#0184D4"/>
</svg>
