<svg width="50" height="36" viewBox="0 0 50 36" fill="none" xmlns="http://www.w3.org/2000/svg">
<path d="M11.0887 0.352936C4.97457 0.352936 0.000976562 5.32653 0.000976562 11.4408C0.000976562 17.339 4.62973 22.1768 10.4456 22.511C10.5463 23.5982 10.4707 26.5576 7.63488 30.6744C7.42051 30.985 7.45941 31.4038 7.72567 31.67C8.88613 32.8305 9.60332 33.5614 10.1053 34.0726C10.7622 34.7409 11.0621 35.0461 11.5007 35.4443C11.6495 35.5793 11.8371 35.6472 12.0257 35.6472C12.2087 35.6472 12.3911 35.5832 12.5383 35.4558C17.4799 31.1558 22.9693 22.2714 22.175 11.3843C21.7096 4.99239 17.0473 0.352936 11.0887 0.352936ZM12.0332 33.7986C11.8204 33.5889 11.5778 33.3417 11.22 32.9777C10.7851 32.5345 10.1885 31.9272 9.28363 31.0193C12.7253 25.7161 12.0752 21.9388 11.7907 21.3971C11.6556 21.14 11.3786 20.9668 11.0887 20.9668C5.83668 20.9668 1.56348 16.6936 1.56348 11.4408C1.56348 6.18864 5.83668 1.91544 11.0887 1.91544C16.205 1.91544 20.212 5.94528 20.6171 11.4972C21.5097 23.7424 14.2321 31.6929 12.0332 33.7986Z" fill="#0184D4"/>
<path d="M49.9227 11.3843V11.3835C49.4557 4.99239 44.7927 0.352936 38.8357 0.352936C32.7214 0.352936 27.7471 5.32653 27.7471 11.4408C27.7471 17.339 32.3766 22.1768 38.1932 22.511C38.2939 23.5974 38.2176 26.5553 35.381 30.6744C35.1667 30.985 35.2056 31.4038 35.4718 31.67C36.6277 32.8259 37.3433 33.5553 37.8453 34.0657C38.5053 34.7386 38.8067 35.0453 39.2476 35.445C39.3964 35.5793 39.5848 35.6472 39.7725 35.6472C39.9557 35.6472 40.138 35.5832 40.2852 35.455C45.2268 31.1551 50.7161 22.2707 49.9227 11.3843ZM39.7801 33.7986C39.5657 33.5873 39.3209 33.3386 38.96 32.9709C38.5251 32.5283 37.9308 31.9226 37.0297 31.0193C40.4714 25.7153 39.8221 21.9388 39.5383 21.3971C39.4032 21.1408 39.1256 20.9668 38.8357 20.9668C33.5828 20.9668 29.3096 16.6936 29.3096 11.4408C29.3096 6.18864 33.5828 1.91544 38.8357 1.91544C43.9511 1.91544 47.9589 5.94528 48.3647 11.4979V11.4972C49.2566 23.7408 41.9789 31.6929 39.7801 33.7986Z" fill="#0184D4"/>
</svg>
