<svg width="60" height="60" viewBox="0 0 60 60" fill="none" xmlns="http://www.w3.org/2000/svg">
<path d="M55.2237 4.76218H54.9495H53.8462C53.0809 4.76218 52.4253 4.83207 51.8812 4.84888C51.3363 4.8648 50.8514 4.90373 50.4268 4.96832C50.0021 5.03202 49.6057 5.1196 49.2377 5.23196C48.8688 5.34344 48.5131 5.47791 48.1698 5.63893C47.1737 6.08483 46.3394 6.39714 45.6643 7.33759C44.9902 8.27805 44.5531 9.38572 44.3523 10.6624C43.9515 13.2148 43.3809 16.8961 43.3809 16.8961C43.3809 16.8961 43.8427 16.9457 46.8428 16.9457H48.7201C50.2189 16.9457 51.3593 16.8262 52.144 16.7147C52.9261 16.6024 53.6781 16.3883 54.3983 16.0689C55.3927 15.6212 56.2279 14.9285 56.902 13.9871C57.5753 13.0458 58.0141 11.9381 58.2132 10.6624C58.4149 9.38572 59.1961 4.75952 59.1961 4.75952C59.1961 4.75952 56.1606 4.76041 55.2237 4.76218Z" fill="#0085D2"/>
<path d="M47.0471 22.2353H46.5632H32.6731C31.9078 22.2353 31.2522 22.2424 30.7081 22.2583C30.1623 22.2734 29.6783 22.3141 29.2537 22.3769C28.829 22.4415 28.4335 22.5282 28.0655 22.6405C27.6948 22.752 27.3391 22.8874 26.995 23.0466C25.9997 23.4934 25.1663 24.1888 24.4912 25.1284C23.8179 26.0688 23.38 27.1782 23.1792 28.454C22.7784 31.0064 22.2077 34.4975 22.2077 34.4975C22.2077 34.4975 26.2438 34.4816 29.2448 34.4816H45.0901C46.5889 34.4816 47.731 34.4259 48.514 34.3153C49.297 34.2029 50.0481 33.9871 50.7683 33.6694C51.7636 33.2218 52.5988 32.7201 53.272 31.7788C53.9462 30.8383 54.3841 29.7289 54.5841 28.454C54.7849 27.1782 55.5661 22.2327 55.5661 22.2327C55.5661 22.2327 48.9166 22.2353 47.0471 22.2353Z" fill="#0085D2"/>
<path d="M43.4109 39.8245H42.927H10.6524C9.88714 39.8245 9.23068 39.8316 8.68658 39.8484C8.14159 39.8634 7.65765 39.9032 7.23298 39.9687C6.80743 40.0306 6.41196 40.1182 6.04392 40.2323C5.67499 40.3421 5.31845 40.4783 4.97518 40.6384C3.97898 41.0834 3.14558 41.778 2.47054 42.7184C1.79726 43.6598 1.35933 44.7683 1.1585 46.045C0.757719 48.5965 0.192383 51.985 0.192383 51.985C0.192383 51.985 5.69622 52.0097 8.69631 52.0097H41.4548C42.9535 52.0097 44.0948 51.9531 44.8778 51.8416C45.6608 51.7293 46.4119 51.7682 47.1321 51.4497C48.1274 51.0029 48.9617 50.3102 49.6367 49.3697C50.3109 48.4275 50.7488 47.319 50.9488 46.045C51.1496 44.7683 51.9308 39.8236 51.9308 39.8236C51.9308 39.8236 45.2804 39.8245 43.4109 39.8245Z" fill="#F7A72F"/>
</svg>
