<svg width="20" height="17" viewBox="0 0 20 17" fill="none" xmlns="http://www.w3.org/2000/svg">
<path fill-rule="evenodd" clip-rule="evenodd" d="M20 1.9098C19.26 2.2398 18.47 2.4598 17.64 2.5598C18.4962 2.04739 19.1362 1.2403 19.44 0.289803C18.65 0.759803 17.78 1.0998 16.84 1.2898C16.2244 0.632986 15.4097 0.197049 14.5216 0.049274C13.6336 -0.0985012 12.7216 0.0501012 11.9265 0.472146C11.1313 0.89419 10.4971 1.56621 10.1218 2.3845C9.74657 3.20278 9.65104 4.12183 9.85 4.9998C8.22029 4.92117 6.62522 4.50137 5.16794 3.76756C3.71066 3.03375 2.4236 2.00227 1.39 0.739803C0.859171 1.63865 0.694953 2.70742 0.931449 3.72416C1.16794 4.74091 1.78698 5.62749 2.66 6.1998C2.00909 6.18319 1.3715 6.0118 0.8 5.6998V5.7398C0.802585 6.68641 1.13265 7.60297 1.73416 8.3339C2.33567 9.06483 3.17158 9.5651 4.1 9.7498C3.49351 9.91507 2.8572 9.93902 2.24 9.8198C2.50261 10.6334 3.01298 11.3446 3.69971 11.8538C4.38645 12.363 5.21519 12.6448 6.07 12.6598C4.35145 14.0076 2.16859 14.6189 0 14.3598C1.87824 15.5594 4.06138 16.1945 6.29 16.1898C13.84 16.1898 17.96 9.9598 17.96 4.5598V4.0298C18.76 3.4498 19.45 2.7298 20 1.9098Z" fill="#B9BDC2"/>
</svg>
