<svg width="40" height="40" viewBox="0 0 40 40" fill="none" xmlns="http://www.w3.org/2000/svg">
<circle cx="20" cy="20" r="20" fill="#2F8AF2"/>
<path fill-rule="evenodd" clip-rule="evenodd" d="M32.5109 14.1934C32.6932 13.5574 32.5109 13.0901 31.6432 13.0901H28.7742C28.0447 13.0901 27.7084 13.4938 27.526 13.939C27.526 13.939 26.0669 17.6594 24.0001 20.0761C23.3314 20.7757 23.0274 20.9983 22.6626 20.9983C22.4803 20.9983 22.2067 20.7757 22.2067 20.1397V14.1934C22.2067 13.4302 22.0046 13.0901 21.3966 13.0901H16.8881C16.4322 13.0901 16.158 13.4443 16.158 13.78C16.158 14.5035 17.1914 14.6703 17.2979 16.7055V21.1255C17.2979 22.0946 17.1307 22.2703 16.7659 22.2703C15.7933 22.2703 13.4274 18.5332 12.0242 14.257C11.7492 13.4258 11.4734 13.0901 10.7401 13.0901H7.87105C7.05132 13.0901 6.88736 13.4938 6.88736 13.939C6.88736 14.7339 7.86004 18.677 11.4163 23.892C13.7871 27.4534 17.1274 29.3839 20.167 29.3839C21.9907 29.3839 22.2163 28.9551 22.2163 28.2166V25.5249C22.2163 24.6673 22.3891 24.4961 22.9666 24.4961C23.3921 24.4961 24.1216 24.7187 25.8238 26.4359C27.7691 28.471 28.0898 29.3839 29.184 29.3839H32.0531C32.8728 29.3839 33.2827 28.9551 33.0463 28.109C32.7875 27.2656 31.8587 26.042 30.6263 24.5915C29.9576 23.7648 28.9546 22.8744 28.6506 22.4292C28.2251 21.8569 28.3466 21.6024 28.6506 21.0937C28.6506 21.0937 32.1461 15.9423 32.5109 14.1934Z" fill="white"/>
</svg>
