<svg width="22" height="16" viewBox="0 0 22 16" fill="none" xmlns="http://www.w3.org/2000/svg">
<path fill-rule="evenodd" clip-rule="evenodd" d="M9.3 12.5202C8.68 12.9002 8.33 12.5902 8.33 11.8502V4.72021C8.33 3.97021 8.67 3.67021 9.3 4.04021L15.28 7.59021C15.91 7.97021 15.66 8.66021 15.28 8.95021L9.31 12.5202H9.3ZM3.68 0.950209C3.19721 0.948893 2.7189 1.04285 2.27248 1.2267C1.82606 1.41054 1.4203 1.68066 1.07845 2.02159C0.7366 2.36251 0.465375 2.76753 0.280316 3.21345C0.0952559 3.65936 -1.79223e-06 4.13741 0 4.62021L0 11.9502C0 12.9236 0.38666 13.857 1.07492 14.5453C1.76318 15.2335 2.69666 15.6202 3.67 15.6202H18.33C18.812 15.6202 19.2892 15.5253 19.7344 15.3408C20.1797 15.1564 20.5843 14.8861 20.9251 14.5453C21.2659 14.2045 21.5362 13.7999 21.7206 13.3547C21.9051 12.9094 22 12.4322 22 11.9502V4.62021C22 4.13826 21.9051 3.66103 21.7206 3.21576C21.5362 2.7705 21.2659 2.36592 20.9251 2.02513C20.5843 1.68434 20.1797 1.41401 19.7344 1.22957C19.2892 1.04514 18.812 0.950209 18.33 0.950209H3.67H3.68Z" fill="#B9BDC2"/>
</svg>
