<svg width="600" height="438" viewBox="0 0 600 438" fill="none" xmlns="http://www.w3.org/2000/svg">
<g opacity="0.3">
<path opacity="0.3" d="M34.0541 216.262V223.157M24.4257 213.525H31.4189H24.4257ZM36.8919 213.525H43.5811H36.8919ZM34.0541 203.893V210.787V203.893Z" stroke="#4A90E2" stroke-width="2.6" stroke-linecap="round" stroke-linejoin="round"/>
<g opacity="0.3">
<path opacity="0.3" d="M308.615 408.8V415.593M298.986 406.062H305.878H298.986ZM311.351 406.062H318.243H311.351ZM308.615 396.431V403.325V396.431Z" stroke="#4A90E2" stroke-width="2.6" stroke-linecap="round" stroke-linejoin="round"/>
</g>
<g opacity="0.3">
<path opacity="0.3" d="M556.014 301.531V308.628M546.689 298.692H553.277H546.689ZM558.649 298.692H565.338H558.649ZM556.014 288.654V295.751V288.654Z" stroke="#4A90E2" stroke-width="2.6" stroke-linecap="round" stroke-linejoin="round"/>
</g>
<g opacity="0.3">
<path opacity="0.3" d="M400.946 25.7527V32.4444M391.824 22.9139H398.311H391.824ZM403.581 22.9139H410.068H403.581ZM400.946 13.3833V20.1764V13.3833Z" stroke="#4A90E2" stroke-width="2.6" stroke-linecap="round" stroke-linejoin="round"/>
</g>
</g>
<g opacity="0.3">
<path opacity="0.3" d="M20.2703 331.339C25.308 331.339 29.3919 327.253 29.3919 322.214C29.3919 317.174 25.308 313.089 20.2703 313.089C15.2325 313.089 11.1487 317.174 11.1487 322.214C11.1487 327.253 15.2325 331.339 20.2703 331.339Z" stroke="#4A90E2" stroke-width="2.6"/>
<path opacity="0.3" d="M220.946 435.972C225.984 435.972 230.068 431.887 230.068 426.847C230.068 421.808 225.984 417.722 220.946 417.722C215.908 417.722 211.824 421.808 211.824 426.847C211.824 431.887 215.908 435.972 220.946 435.972Z" stroke="#4A90E2" stroke-width="2.6"/>
<path opacity="0.3" d="M107.939 19.9736C112.977 19.9736 117.061 15.8882 117.061 10.8486C117.061 5.80903 112.977 1.72363 107.939 1.72363C102.901 1.72363 98.8176 5.80903 98.8176 10.8486C98.8176 15.8882 102.901 19.9736 107.939 19.9736Z" stroke="#4A90E2" stroke-width="2.6"/>
<path opacity="0.3" d="M462.162 397.444C467.2 397.444 471.284 393.359 471.284 388.319C471.284 383.28 467.2 379.194 462.162 379.194C457.124 379.194 453.041 383.28 453.041 388.319C453.041 393.359 457.124 397.444 462.162 397.444Z" stroke="#4A90E2" stroke-width="2.6"/>
</g>
<path fill-rule="evenodd" clip-rule="evenodd" d="M527.027 34.4723C536.959 34.4723 545.27 42.8876 545.27 53.0265V361.654C545.27 368.751 545.068 371.489 543.953 374.328C542.534 378.181 539.595 380.208 534.628 380.208H65.2703C60.3041 380.208 57.1622 378.181 55.4392 374.429C54.1216 371.388 53.7162 367.738 53.7162 361.654V53.0265C53.7162 42.8876 62.027 34.4723 71.9595 34.4723H527.027Z" fill="#F6F6F6" stroke="#4391E7" stroke-width="2" stroke-linecap="round" stroke-linejoin="round"/>
<path fill-rule="evenodd" clip-rule="evenodd" d="M73.4797 378.181L72.6689 378.079H73.4797V378.181ZM526.52 378.079H527.331H526.52ZM529.764 380.006C453.317 381.303 376.863 382.047 300.405 382.236C232.767 382.08 165.131 381.505 97.5 380.513C77.4324 380.31 71.7568 380.208 70.1351 380.006C48.4459 380.208 30.7095 378.485 16.8243 375.443C11.6471 374.315 6.56444 372.79 1.62163 370.881L1.01352 370.576V367.028H598.987V370.576L598.378 370.881L597.365 371.286C592.413 373.115 587.331 374.573 582.162 375.646C564.902 378.966 547.335 380.428 529.764 380.006Z" fill="#F6F6F6" stroke="#4391E7" stroke-width="2" stroke-linecap="round" stroke-linejoin="round"/>
<path fill-rule="evenodd" clip-rule="evenodd" d="M299.493 374.125C280.322 374.435 261.146 373.86 242.027 372.401L241.216 372.3V367.028H357.77V372.3L356.959 372.401C351.791 373.415 325.338 374.125 299.493 374.125Z" stroke="#0295D3" stroke-width="2"/>
<path fill-rule="evenodd" clip-rule="evenodd" d="M58.7838 54.7501C58.7838 50.7166 60.3855 46.8483 63.2366 43.9962C66.0876 41.1441 69.9545 39.5417 73.9865 39.5417H525C529.032 39.5417 532.899 41.1441 535.75 43.9962C538.601 46.8483 540.203 50.7166 540.203 54.7501V361.958H58.7838V54.7501Z" fill="#2C3341" stroke="#4391E7" stroke-width="2"/>
<g filter="url(#filter0_d)">
<path fill-rule="evenodd" clip-rule="evenodd" d="M145.946 66.9167H234.122C236.003 66.9167 237.808 67.6645 239.138 68.9955C240.469 70.3265 241.216 72.1317 241.216 74.014V150.056C241.216 151.938 240.469 153.743 239.138 155.074C237.808 156.405 236.003 157.153 234.122 157.153H145.946C144.064 157.153 142.26 156.405 140.929 155.074C139.599 153.743 138.851 151.938 138.851 150.056V74.014C138.851 72.1317 139.599 70.3265 140.929 68.9955C142.26 67.6645 144.064 66.9167 145.946 66.9167V66.9167Z" fill="white"/>
<path fill-rule="evenodd" clip-rule="evenodd" d="M240.912 87.4987L249.223 95.8126C250.135 96.7251 250.135 98.1445 249.223 99.057L240.912 107.371C240 108.385 238.48 108.385 237.568 107.371L229.358 99.1584C228.345 98.1445 228.345 96.7251 229.358 95.8126L237.669 87.4987C238.581 86.4848 240 86.4848 240.912 87.4987Z" fill="white"/>
</g>
<path fill-rule="evenodd" clip-rule="evenodd" d="M151.014 123.694H207.77V129.778H151.014V123.694ZM151.014 138.903H183.446V144.986H151.014V138.903Z" fill="#DDDDDD"/>
<g filter="url(#filter1_d)">
<path d="M265.541 66.9167H454.054C455.936 66.9167 457.74 67.6645 459.071 68.9955C460.401 70.3265 461.149 72.1317 461.149 74.014V327.486C461.149 329.368 460.401 331.174 459.071 332.505C457.74 333.836 455.936 334.583 454.054 334.583H265.541C263.659 334.583 261.854 333.836 260.524 332.505C259.193 331.174 258.446 329.368 258.446 327.486V74.014C258.446 72.1317 259.193 70.3265 260.524 68.9955C261.854 67.6645 263.659 66.9167 265.541 66.9167V66.9167Z" fill="black"/>
</g>
<path d="M265.541 66.9167H454.054C455.936 66.9167 457.74 67.6645 459.071 68.9955C460.401 70.3265 461.149 72.1317 461.149 74.014V327.486C461.149 329.368 460.401 331.174 459.071 332.505C457.74 333.836 455.936 334.583 454.054 334.583H265.541C263.659 334.583 261.854 333.836 260.524 332.505C259.193 331.174 258.446 329.368 258.446 327.486V74.014C258.446 72.1317 259.193 70.3265 260.524 68.9955C261.854 67.6645 263.659 66.9167 265.541 66.9167V66.9167Z" fill="white"/>
<path fill-rule="evenodd" clip-rule="evenodd" d="M298.986 98.8543C298.986 96.8375 298.186 94.9034 296.76 93.4773C295.335 92.0513 293.401 91.2501 291.385 91.2501C289.369 91.2501 287.436 92.0513 286.01 93.4773C284.585 94.9034 283.784 96.8375 283.784 98.8543C283.784 100.871 284.585 102.805 286.01 104.231C287.436 105.657 289.369 106.458 291.385 106.458C293.401 106.458 295.335 105.657 296.76 104.231C298.186 102.805 298.986 100.871 298.986 98.8543Z" fill="#0397D6"/>
<path fill-rule="evenodd" clip-rule="evenodd" d="M330.405 98.8543C330.405 96.8375 329.605 94.9034 328.179 93.4773C326.753 92.0513 324.82 91.2501 322.804 91.2501C320.788 91.2501 318.855 92.0513 317.429 93.4773C316.004 94.9034 315.203 96.8375 315.203 98.8543C315.203 100.871 316.004 102.805 317.429 104.231C318.855 105.657 320.788 106.458 322.804 106.458C324.82 106.458 326.753 105.657 328.179 104.231C329.605 102.805 330.405 100.871 330.405 98.8543ZM361.824 98.8543C361.824 96.8375 361.023 94.9034 359.598 93.4773C358.172 92.0513 356.239 91.2501 354.223 91.2501C352.207 91.2501 350.274 92.0513 348.848 93.4773C347.422 94.9034 346.622 96.8375 346.622 98.8543C346.622 100.871 347.422 102.805 348.848 104.231C350.274 105.657 352.207 106.458 354.223 106.458C356.239 106.458 358.172 105.657 359.598 104.231C361.023 102.805 361.824 100.871 361.824 98.8543Z" fill="#DDDDDD"/>
<path d="M431.655 125.418H288.041C286.081 125.418 284.493 127.007 284.493 128.967V144.885C284.493 146.845 286.081 148.433 288.041 148.433H431.655C433.615 148.433 435.203 146.845 435.203 144.885V128.967C435.203 127.007 433.615 125.418 431.655 125.418Z" stroke="#DDDDDD" stroke-width="1.3"/>
<path fill-rule="evenodd" clip-rule="evenodd" d="M295.845 133.833H352.601V139.917H295.845V133.833Z" fill="#DDDDDD"/>
<path fill-rule="evenodd" clip-rule="evenodd" d="M295.946 170.333H352.703V176.417H295.946V170.333Z" fill="#DDDDDD"/>
<path d="M431.655 161.918H288.041C286.081 161.918 284.493 163.507 284.493 165.467V181.385C284.493 183.345 286.081 184.933 288.041 184.933H431.655C433.615 184.933 435.203 183.345 435.203 181.385V165.467C435.203 163.507 433.615 161.918 431.655 161.918Z" stroke="#DDDDDD" stroke-width="1.3"/>
<path fill-rule="evenodd" clip-rule="evenodd" d="M295.845 206.833H352.601V212.917H295.845V206.833Z" fill="#DDDDDD"/>
<path d="M431.655 198.418H288.041C286.081 198.418 284.493 200.007 284.493 201.967V217.885C284.493 219.845 286.081 221.433 288.041 221.433H431.655C433.615 221.433 435.203 219.845 435.203 217.885V201.967C435.203 200.007 433.615 198.418 431.655 198.418Z" stroke="#DDDDDD" stroke-width="1.3"/>
<path fill-rule="evenodd" clip-rule="evenodd" d="M314.189 249.417H435.811V255.5H314.189V249.417Z" fill="#DDDDDD"/>
<path fill-rule="evenodd" clip-rule="evenodd" d="M283.784 245.868C283.784 243.84 285.405 242.319 287.331 242.319H300.405C302.331 242.319 303.953 243.942 303.953 245.868V259.049C303.953 260.975 302.331 262.597 300.405 262.597H287.331C285.304 262.597 283.784 260.975 283.784 258.947V245.868Z" fill="#0397D6"/>
<path d="M300.203 248.403L291.791 256.818L287.838 252.763" stroke="white" stroke-width="1.5"/>
<g filter="url(#filter2_d)">
<path d="M419.595 277.806H300C291.044 277.806 283.784 285.069 283.784 294.028C283.784 302.987 291.044 310.25 300 310.25H419.595C428.551 310.25 435.811 302.987 435.811 294.028C435.811 285.069 428.551 277.806 419.595 277.806Z" fill="black"/>
</g>
<path d="M419.595 277.806H300C291.044 277.806 283.784 285.069 283.784 294.028C283.784 302.987 291.044 310.25 300 310.25H419.595C428.551 310.25 435.811 302.987 435.811 294.028C435.811 285.069 428.551 277.806 419.595 277.806Z" fill="#F6A32D"/>
<path d="M418.581 288.958L423.649 294.028L418.581 299.097M411.892 294.028H422.23H411.892Z" stroke="white" stroke-width="1.5" stroke-linecap="round" stroke-linejoin="round"/>
<path fill-rule="evenodd" clip-rule="evenodd" d="M185.777 85.5723C185.068 85.775 184.459 86.1806 183.75 86.5861L182.939 87.3973L182.331 88.3098L181.824 89.3236L181.622 90.1348V90.8445L181.824 91.5542C182.128 91.8584 182.534 92.0612 183.041 92.0612H183.649L184.155 91.757L184.561 91.3514L184.966 90.6417C185.372 89.932 185.777 89.425 186.182 89.1209C186.689 88.8167 187.196 88.7153 187.804 88.7153L188.818 88.8167L189.527 89.3236L189.831 90.1348V91.1486L189.628 92.0612L189.223 92.8723C188.85 93.4363 188.443 93.9779 188.007 94.4945L180.709 102.403L179.899 103.417C179.595 103.721 179.493 104.126 179.392 104.431V105.343L179.696 105.85C179.899 106.154 180.203 106.357 180.507 106.357L181.52 106.458H190.135L190.439 106.357L190.642 106.256L191.351 105.647C191.554 105.343 191.655 105.039 191.655 104.633V103.822C191.554 103.518 191.351 103.315 191.149 103.214L190.845 103.113L190.541 103.011C190.237 103.003 189.932 103.003 189.628 103.011H184.459L190.237 96.8264C190.743 96.2181 191.25 95.8125 191.554 95.3056L192.568 93.9875C192.872 93.4806 193.074 93.075 193.176 92.5681L193.581 91.0473V88.5125C193.408 87.8262 193.059 87.197 192.568 86.6875C192.061 86.1806 191.554 85.775 190.743 85.5723C189.962 85.2961 189.139 85.1588 188.311 85.1667C187.399 85.1667 186.588 85.2681 185.878 85.5723H185.777ZM204.02 85.4709L203.514 85.8764L202.905 86.7889L194.392 99.6653C194.207 99.9255 194.038 100.196 193.885 100.476L193.581 101.288V102.099L194.088 102.707L194.899 103.113H201.588L201.487 103.822V104.431L201.385 104.836V105.546L201.993 106.256L203.007 106.458C203.412 106.458 203.818 106.458 204.02 106.256C204.426 106.053 204.628 105.85 204.831 105.546C205.034 105.343 205.135 105.14 205.135 104.836L205.338 103.822L205.439 103.214H207.061L207.365 103.113L207.669 103.011L208.378 102.403L208.784 101.389L208.682 100.578C208.581 100.274 208.378 100.071 208.176 99.9695L207.872 99.8681L207.568 99.7667H206.047L206.25 97.9417L206.351 96.9278V96.2181C206.149 95.9139 206.047 95.7111 205.743 95.6098C205.439 95.407 205.135 95.3056 204.73 95.3056C204.324 95.3056 204.02 95.407 203.716 95.6098C203.311 95.7111 203.108 95.9139 202.905 96.2181L202.703 96.5223L202.601 96.9278L202.5 97.3334L202.399 97.9417L202.095 99.7667H198.446L205.845 88.4111L206.149 87.9042L206.453 87.4987V87.1945L206.655 86.8903L206.554 86.1806C206.554 85.9778 206.351 85.775 206.149 85.6736L205.642 85.2681L204.932 85.1667C204.628 85.1667 204.324 85.1667 203.919 85.4709" fill="#F7A72F"/>
<path fill-rule="evenodd" clip-rule="evenodd" d="M176.554 85.1667H174.324L173.818 85.3695L173.311 85.5723C172.905 85.7751 172.5 85.8765 172.297 86.282C171.892 86.789 171.689 87.2959 171.689 87.8029L171.182 90.6417H175.338L176.351 90.2362C176.757 90.0334 177.162 89.7292 177.365 89.3237C177.77 88.9181 177.973 88.3098 178.074 87.8029L178.48 85.1667H176.655H176.554ZM173.007 93.0751H165.101L164.595 93.1765L164.088 93.3792C163.682 93.582 163.277 93.8862 163.074 94.3931C162.669 94.7987 162.466 95.3056 162.365 95.8126L161.959 98.5501H173.716L174.73 98.1445C175.135 97.9417 175.541 97.739 175.743 97.3334C176.149 96.9279 176.351 96.4209 176.453 95.8126L176.858 93.0751H173.007ZM171.385 100.983H155.169L154.662 101.186L154.155 101.288C153.704 101.538 153.316 101.887 153.017 102.308C152.719 102.729 152.519 103.212 152.432 103.721L152.027 106.458H171.993L173.007 106.256C173.412 106.053 173.818 105.647 174.02 105.242C174.426 104.836 174.628 104.329 174.73 103.721L175.135 100.983H171.284" fill="#89CAEA"/>
<defs>
<filter id="filter0_d" x="90.8513" y="23.9167" width="207.056" height="186.236" filterUnits="userSpaceOnUse" color-interpolation-filters="sRGB">
<feFlood flood-opacity="0" result="BackgroundImageFix"/>
<feColorMatrix in="SourceAlpha" type="matrix" values="0 0 0 0 0 0 0 0 0 0 0 0 0 0 0 0 0 0 127 0"/>
<feOffset dy="5"/>
<feGaussianBlur stdDeviation="24"/>
<feColorMatrix type="matrix" values="0 0 0 0 0.172549 0 0 0 0 0.2 0 0 0 0 0.254902 0 0 0 0.168846 0"/>
<feBlend mode="normal" in2="BackgroundImageFix" result="effect1_dropShadow"/>
<feBlend mode="normal" in="SourceGraphic" in2="effect1_dropShadow" result="shape"/>
</filter>
<filter id="filter1_d" x="210.446" y="23.9167" width="298.703" height="363.667" filterUnits="userSpaceOnUse" color-interpolation-filters="sRGB">
<feFlood flood-opacity="0" result="BackgroundImageFix"/>
<feColorMatrix in="SourceAlpha" type="matrix" values="0 0 0 0 0 0 0 0 0 0 0 0 0 0 0 0 0 0 127 0"/>
<feOffset dy="5"/>
<feGaussianBlur stdDeviation="24"/>
<feColorMatrix type="matrix" values="0 0 0 0 0.172549 0 0 0 0 0.2 0 0 0 0 0.254902 0 0 0 0.168846 0"/>
<feBlend mode="normal" in2="BackgroundImageFix" result="effect1_dropShadow"/>
<feBlend mode="normal" in="SourceGraphic" in2="effect1_dropShadow" result="shape"/>
</filter>
<filter id="filter2_d" x="277.784" y="276.806" width="164.027" height="44.4444" filterUnits="userSpaceOnUse" color-interpolation-filters="sRGB">
<feFlood flood-opacity="0" result="BackgroundImageFix"/>
<feColorMatrix in="SourceAlpha" type="matrix" values="0 0 0 0 0 0 0 0 0 0 0 0 0 0 0 0 0 0 127 0"/>
<feOffset dy="5"/>
<feGaussianBlur stdDeviation="3"/>
<feColorMatrix type="matrix" values="0 0 0 0 0.172549 0 0 0 0 0.2 0 0 0 0 0.254902 0 0 0 0.1 0"/>
<feBlend mode="normal" in2="BackgroundImageFix" result="effect1_dropShadow"/>
<feBlend mode="normal" in="SourceGraphic" in2="effect1_dropShadow" result="shape"/>
</filter>
</defs>
</svg>
